<?xml version="1.0" encoding="utf-8"?>
<!-- Generator: Adobe Illustrator 19.2.0, SVG Export Plug-In . SVG Version: 6.00 Build 0)  -->
<svg version="1.1" id="Livello_1" xmlns="http://www.w3.org/2000/svg" xmlns:xlink="http://www.w3.org/1999/xlink" x="0px" y="0px"
	 viewBox="0 0 538.6 151.3" style="enable-background:new 0 0 538.6 151.3;" xml:space="preserve">
<style type="text/css">
	.st0{fill:#FFFFFF;stroke:#000000;stroke-width:0.25;stroke-miterlimit:10;}
	.st1{stroke:#000000;stroke-width:0.25;stroke-miterlimit:10;}
</style>
<g>
	<path class="st0" d="M215.9,145c0-46.2,0-92.4,0-138.6c34.1,0,68.1,0,102.2,0c0,46.2,0,92.4,0,138.6C284,145,249.9,145,215.9,145z
		 M288.1,73.5c0.5,0.1,0.8-0.1,1.1-0.3c-0.3-0.2-0.5-0.3-0.7-0.5c-0.2-0.1-0.4-0.2-0.6-0.3c-0.1-0.1-0.2-0.1-0.3-0.2
		c0.1-0.1,0.2-0.1,0.3-0.2c0.1-0.1,0.2-0.2,0.4-0.3c-0.4,0-0.6-0.1-0.9-0.1c-0.2,0.1-0.4,0.2-0.6,0.4c-0.2,0.2-0.5,0.3-0.6,0.5
		c-0.2,0.5-0.2,1-0.3,1.5c0,0.1,0,0.3,0,0.4c0,0-0.1,0-0.1,0c-0.1-0.2-0.2-0.4-0.3-0.6c-0.1,0.2-0.1,0.5-0.3,0.7
		c-0.4,0.4-0.9,0.5-1.5,0.3c-0.2-0.1-0.6-0.2-0.8-0.1c-0.5,0.4-0.7,0.1-1-0.1c0.3-0.3,0.7-0.5,1-0.8c0.3-0.4,0.7-0.4,0.9-0.3
		c0.4-0.4,0.8-0.6,1-1c0.3-0.3,0.4-0.8,0.6-1.1c0,0-0.1-0.1-0.1-0.1c-0.4,0.7-1,1-1.9,0.7c0.1-0.2,0.2-0.3,0.3-0.4
		c-0.2-0.1-0.4-0.2-0.6-0.3c0-0.1,0-0.1,0-0.2c0.5-0.1,1-0.2,1.4-0.2c0.1-0.2,0.1-0.3,0.1-0.4c-0.2-0.1-0.3-0.1-0.5-0.2
		c0.1-0.2,0.2-0.4,0.3-0.5c-0.3-0.1-0.6,0.5-1,0.1c0.3-0.7,0.8-0.5,1.4-0.3c-0.1-0.2-0.2-0.4-0.3-0.6c-0.2,0.1-0.4,0.1-0.6,0.2
		c0,0-0.1-0.1-0.1-0.1c0.1-0.3,0.2-0.5,0.3-0.8c0,0-0.1,0-0.1,0c-0.2,0.4-0.4,0.7-0.6,1.1c0,0-0.1,0-0.1,0c0-0.1,0-0.2,0-0.4
		c-0.1,0-0.1,0-0.2,0c-0.6,0.3-1.1,0.2-1.6-0.3c-0.2-0.2-0.2-0.3-0.1-0.5c0.1-0.4,0.3-0.7-0.1-1.1c-0.1-0.1-0.1-0.4-0.1-0.6
		c0.4,0.1,0.7,0.1,1,0.1c0.1,0,0.2,0,0.2,0c0-0.1,0-0.2,0-0.3c-0.1-0.1-0.2-0.2-0.4-0.2c-0.3-0.1-0.5-0.2-0.7-0.6
		c0.4,0.1,0.6,0.1,0.9,0.2c0-0.2,0.1-0.3,0.1-0.5c-0.1-0.1-0.2-0.2-0.3-0.3c0.2,0,0.4-0.1,0.7-0.1c-0.2-0.2-0.4-0.2-0.5-0.3
		c-0.1-0.1-0.1-0.2-0.2-0.3c0.3-0.1,0.1-0.4,0.2-0.6c0.2-0.3,0-0.3-0.2-0.4c0,0.1-0.1,0.2-0.1,0.2c-0.3,0.1-0.6,0.1-0.8,0.1
		c-0.1,0-0.2-0.1-0.3-0.2c-0.1,0-0.1-0.1-0.1-0.2c-0.1,0.1-0.2,0.2-0.3,0.3c0-0.2-0.1-0.3-0.1-0.3c-0.3,0-0.6,0-0.8,0
		c-0.1,0-0.2,0-0.2-0.1c0-0.1,0.1-0.2,0.1-0.2c0.1-0.2,0.1-0.4,0.2-0.5c-0.5,0.4-0.6,0.5-0.8,0.1c-0.2-0.4-0.3-0.8-0.5-1.2
		c0.2,0.1,0.3,0.1,0.4,0.2c-0.1-0.4-0.2-0.7-0.3-1.1c0-0.1,0.1-0.3,0.1-0.5c0.1,0.1,0.2,0.2,0.3,0.2c0.2,0,0.4-0.2,0.5-0.1
		c0.1,0.1,0.2,0.3,0.3,0.4c0.1,0.2,0.2,0.4,0.3,0.6c0.2-0.1,0.3-0.2,0.3-0.3c0.2,0.1,0.4,0.2,0.6,0.3c0,0,0.1-0.1,0.1-0.1
		c-0.4-0.3-0.8-0.6-1.3-0.9c0.5-0.4,0.9-0.2,1.2,0.2c0.1-0.2,0.2-0.3,0.3-0.5c0.1,0.1,0.1,0.2,0.1,0.3c0.1,0.2,0.3,0.4,0.4,0.6
		c0.2-0.2,0.4-0.3,0.5-0.5c0.1-0.1,0.1-0.2,0.2-0.2c0.7-0.3,1.4,0,1.7,0.7c0.1,0.3,0.3,0.5,0.4,0.8c0.1,0.1,0.2,0.2,0.3,0.2
		c0.5,0,1.1-0.1,1.7-0.2c-0.2-0.7,0-1.1,0.6-1.1c0.6,0,0.9-0.5,1.3-0.9c0.3-0.4,0.6-0.8,0.9-1.1c0.1-0.2,0.2-0.4,0.3-0.7
		c-0.3,0-0.6,0.6-0.8,0c-0.5,0.2-0.9,0.8-1.6,0.5c0.2-0.2,0.3-0.4,0.4-0.6c0,0-0.1-0.1-0.1-0.1c-0.2,0.3-0.5,0.4-0.9,0.3
		c-0.4-0.1-0.6-0.4-0.7-0.8c0.4-0.1,0.7-0.1,1.1-0.2c-0.5-0.5,0.1-0.5,0.3-0.7c-0.3-0.3,0-0.9-0.5-1.1c0,0,0-0.1,0-0.1
		c0.3-0.4-0.3-0.7-0.2-1.1c0-0.2-0.1-0.3,0.2-0.4c0.1,0,0.3-0.1,0.4-0.1c0-0.2-0.1-0.3-0.1-0.5c-0.2,0.2-0.3,0.3-0.4,0.5
		c0-0.5-0.6-1-0.3-1.5c-0.6-0.6,0.2-1.2-0.2-1.8c0.4,0,0.6-0.1,0.9-0.1c0.1-0.1,0.2-0.3,0.4-0.5c-0.3-0.2-0.7,0.5-0.9-0.1
		c-0.1,0.2-0.2,0.3-0.2,0.4c-0.1-0.1-0.2-0.1-0.3-0.2c0,0.1-0.1,0.1-0.1,0.2c-0.1,0-0.2,0.1-0.3,0.1c0.1-0.1,0.1-0.3,0.2-0.4
		c0.3-0.2,0.6-0.3,0.9-0.4c0.1-0.1,0.2-0.2,0.4-0.3c0,0-0.1-0.1-0.1-0.1c-0.2,0-0.4,0-0.7,0c0,0,0-0.1,0-0.1
		c0.2-0.1,0.4-0.2,0.6-0.3c0,0-0.1,0-0.1-0.1c0.2-0.3,0.3-0.6,0.5-0.9c-0.2,0.1-0.4,0.4-0.5,0.6c-0.1,0.1-0.2,0.3-0.3,0.3
		c-0.6,0.3-1.1,0-1.7-0.3c0.3-0.1,0.5-0.2,0.7-0.3c0.1,0,0.2,0,0.3-0.1c0.2-0.1,0.3-0.3,0.5-0.4c-0.4-0.4,0.1-0.7,0.2-1.1
		c0-0.1,0.1-0.3,0-0.4c-0.4-0.2-0.4-0.4-0.2-0.9c-1,0.7-1,0.7-1.2,0.4c0.2-0.1,0.4-0.3,0.6-0.4c0,0,0-0.1,0-0.1
		c-0.7,0.4-1.1,0-1.7-0.3c0.1-0.2,0.3-0.3,0.4-0.5c0.1-0.1,0.2-0.3,0.3-0.4c0,0-0.1,0-0.1-0.1c-0.3,0.3-0.7,0.6-1,1
		c-0.1-0.2-0.1-0.5-0.2-0.6c-0.2-0.1-0.4-0.2-0.5-0.2c-0.1,0-0.3-0.1-0.3,0c-0.2,0.4-0.5,0.8-0.7,1.2c-0.1,0.2-0.1,0.4-0.2,0.7
		c-0.6-1-0.3-1.4,0.5-1.9c-0.3-0.4-0.7-0.8-0.5-1.4c0.2,0,0.4,0,0.5-0.1c0.3-0.1,0.6-0.3,1-0.4c0.3-0.1,0.3-0.2,0.1-0.4
		c-0.2-0.2-0.4-0.4-0.5-0.6c-0.1-0.2-0.4-0.4-0.3-0.6c0-0.1,0.3-0.3,0.5-0.4c0,0,0,0,0-0.1c-0.2,0.1-0.5,0.1-0.8,0.2
		c0.1-0.5,0.1-0.9,0.2-1.4c-0.2,0.1-0.3,0.1-0.5,0.2c0-0.2-0.1-0.4-0.1-0.6c0,0,0,0.1-0.1,0.1c-0.3-0.1-0.7-0.2-1-0.3
		c0.1-0.7,0.1-0.7-0.3-0.8c-0.1,0.2-0.1,0.5-0.2,0.7c-0.1,0.1-0.3,0.2-0.4,0.2c-0.3-0.3-0.6-0.2-0.9-0.1c-0.1,0-0.3,0-0.3-0.1
		c0-0.1,0-0.3,0.1-0.4c0.1-0.2,0.2-0.5,0.3-0.7c0,0-0.1-0.1-0.1-0.1c-0.2,0.1-0.4,0.2-0.5,0.3c0,0.2,0,0.4,0,0.7
		c-0.2-0.2-0.3-0.3-0.4-0.3c0-0.2,0-0.4,0-0.6c0,0-0.1,0-0.1,0c-0.1,0.2-0.2,0.4-0.3,0.6c-0.2-0.2-0.3-0.4,0-0.6
		c0.2-0.1,0.4-1,0.4-1.1c-0.1-0.3-0.3-0.6-0.5-0.9c-0.1,0.2-0.2,0.3-0.3,0.4c-0.1,0.1-0.3,0.2-0.5,0.2c-0.1,0-0.2-0.1-0.2-0.2
		c-0.1-0.6-0.1-1.1-0.1-1.7c-0.1-0.1-0.2-0.2-0.4-0.3c-0.1-0.1-0.3-0.2-0.5-0.2c-0.1,0-0.2,0.1-0.2,0.2c-0.1,0.2-0.3,0.5-0.4,0.8
		c0,0-0.1,0-0.1,0c0.1-0.4,0-0.8-0.4-1c-0.1-0.1-0.1-0.3-0.1-0.4c0-0.2-0.1-0.4-0.1-0.6c0,0-0.1,0-0.1,0c0,0.3,0,0.6-0.4,0.6
		c-0.3,0-0.5,0.1-0.9,0.2c0.3,0.1,0.6,0.2,0.8,0.3c-0.1,0.8-0.2,1.5-0.2,2.3c-0.3-0.6-0.5-1.1-0.7-1.6c-0.3,0-0.6,0-0.8,0.1
		c-0.2,0.1-0.1,0.5-0.2,0.8c-0.7-0.6-1.2-1.2-1.9-1.9c0.1,0.4,0.1,0.7,0.1,1.1c-0.1,0-0.3-0.1-0.5-0.2c-0.2-0.1-0.3-0.4-0.5-0.6
		c0,0.3,0.1,0.5,0.1,0.8c0,0.2-0.1,0.4-0.3,0.6c-0.1,0.1-0.4,0.2-0.5,0.3c-0.2,0.3-0.4,0.2-0.6,0.2c0.1-0.2,0.3-0.4,0.4-0.5
		c0.3-0.3,0-0.3-0.2-0.4c0,0,0-0.1-0.1-0.1c-0.1-0.3-0.4-0.3-0.8-0.3c0.2,0.3,0.4,0.6,0.6,1c-0.3-0.1-0.6-0.2-0.9-0.2
		c-0.3,0-0.6,0-1,0c0,0-0.1-0.2-0.1-0.2c-0.4,0.1-0.4-0.2-0.6-0.4c0-0.1-0.1-0.1-0.3-0.1c0.1,0.2,0.2,0.3,0.2,0.4
		c-0.3,0.4-0.6,0.3-0.9-0.3c0.1,0,0.2,0,0.2,0c0.1,0,0.2,0,0.3,0c0,0,0-0.2,0-0.2c-0.1,0-0.2-0.1-0.3-0.1c-0.1,0-0.3,0-0.4,0
		c0-0.2,0-0.4-0.1-0.5c-0.2-0.2-0.4-0.4-0.6-0.6c-0.2-0.2-0.3-0.4-0.4-0.6c-0.1-0.4-0.2-0.8-0.7-0.8c-0.1,0-0.2-0.1-0.3-0.2
		c-0.1-0.1-0.1-0.3-0.2-0.4c-0.2,0.2-0.4,0.3-0.6,0.4c0.6,0.5,0.6,1.2,0.4,1.9c0.7-0.1,0.3,0.5,0.5,0.8c0.2,0.2,0.6,0.5,0.3,0.8
		c0.2,0.1,0.4,0.2,0.5,0.4c0,0,0,0.2-0.1,0.4c-0.1-0.3-0.2-0.4-0.3-0.7c-0.2,0.4-0.4,0.7-0.6,1.1c0,0,0.1,0.2,0.2,0.3
		c0,0-0.1,0.1-0.1,0.1c-0.1,0-0.2-0.1-0.3-0.2c-0.3-0.3-0.7-0.1-0.9,0.1c-0.2,0.2-0.3,0.2-0.4,0.1c-0.2-0.1-0.4-0.3-0.5-0.5
		c0-0.1,0.2-0.3,0.3-0.4c-0.1-0.1-0.4-0.2-0.7-0.4c0.2,0.3,0.5,0.6,0,0.7c0.2,0.2,0.3,0.4,0.4,0.5c-0.3,0.2-0.7,0.4-0.9,0.6
		c0.3,0.6,0.6,1.1,0.8,1.5c0.2,0.4,0,0.6-0.4,0.6c0.1,0.1,0.1,0.3,0.2,0.4c-0.3,0-0.5,0-0.7,0c-0.5,0-0.6-0.1-0.6-0.6
		c0-0.2-0.1-0.3-0.1-0.5c0,0-0.1,0-0.1,0c0,0.3,0,0.5,0,0.8c0,0.2-0.1,0.3-0.2,0.5c-0.2-0.1-0.4-0.1-0.5-0.3
		c-0.1-0.1-0.1-0.3-0.2-0.5c-0.1-0.1-0.2-0.2-0.3-0.3c-0.2-0.1-0.5-0.2-0.7-0.3c0,0,0,0,0-0.1c-0.3,0-0.6-0.1-0.8-0.1
		c-0.1,0-0.2,0.2-0.3,0.2c-0.4-0.1-0.8-0.3-1.3-0.5c-0.1,0.3-0.3,0.5-0.4,0.8c0.7,0.1,0.9,0.7,0.4,1.1c0.6,0.7,0,1.1-0.3,1.7
		c0.1,0,0.2-0.1,0.3-0.2c0.1-0.1,0.2-0.1,0.3-0.2c0,0.2,0.1,0.3,0.1,0.4c0.1,0,0.2-0.1,0.3-0.1c-0.4,0.6-0.4,0.6,0.2,0.9
		c0.1,0.1,0.1,0.3,0.2,0.4c0.1,0.2,0.1,0.5,0.3,0.7c0.4,0.3,0.6,0.6,0.7,1.2c-0.3,0.1-0.6,0.1-1,0.2c0.3,0.1,0.5,0.2,0.7,0.3
		c-0.1,0.2-0.2,0.3-0.3,0.4c-0.3-0.2-0.7-0.4-0.9-0.6c-0.2,0.6-0.4,1.1-0.6,1.7c0.2,0.1,0.4,0.5,0.8,0.6c0.4,0.1,0.5,0.3,0.5,0.5
		c-0.2,0.2-0.3,0.4-0.5,0.6c-0.3-0.3-0.7-0.6-1-0.9c-0.4,0.3,0.1,0.4,0.2,0.7c-0.5,0.2-0.3-0.4-0.7-0.6c0.4,0.7,0.1,1.2-0.2,1.7
		c0.3,0.1,0.6,0.3,1,0.4c-0.5,0-0.9,0.1-1.3,0.1c0,0.2,0,0.3,0,0.5c-0.7-0.4-0.7-0.4-1.1,0c-0.2,0-0.3,0-0.4,0.1c0,0.1,0,0.1,0,0.2
		c0.3-0.1,0.6-0.2,1.1-0.4c0,0.2,0.1,0.4,0.1,0.6c0.1,0.1,0.3,0.3,0.3,0.4c0,0.1-0.2,0.2-0.3,0.3c-0.2,0.1-0.4,0.1-0.7,0.1
		c0,0.2,0,0.5,0,0.7c-0.2,0.1-0.4,0.3-0.7,0.4c0.5,0.3,0.3,0.7,0.2,0.9c0.2,0.1,0.5,0.1,0.6,0.2c0.1,0.3,0.3,0.2,0.5,0.2
		c0.1,0,0.2,0,0.3,0c-0.1,0.3-0.2,0.5-0.4,0.8c0,0,0.1,0,0.1,0c0.1,0.2,0.1,0.4,0.2,0.5c0,0.1,0,0.3,0.1,0.4
		c0.2,0.3,0.2,0.6-0.2,0.7c0.4,0.6,0.5,1.1,0.2,1.4c0.1,0.1,0.2,0.2,0.2,0.3c-0.1,0.1-0.2,0.2-0.2,0.3c-0.1,0.8-0.1,0.8-0.9,0.6
		c0.1,0.2,0.1,0.4,0.2,0.6c0.5-0.2,0.9-0.4,1.3-0.6c0,0.1,0.1,0.3,0.1,0.4c0,0.1-0.2,0.2-0.3,0.3c-0.1-0.1-0.2-0.2-0.2-0.3
		c-0.2,0.1-0.4,0.2-0.6,0.3c-0.1,0.3,0.4,0.8-0.3,1c-0.3,0.1-0.6,0.1-0.7-0.3c-0.5,0.2-0.9,0.3-1.4,0.5c0,0,0,0,0,0.1
		c0.2,0,0.4,0,0.6,0c0.4,0.4,0.8,0.9,1.2,1.4c-0.1,0.1-0.2,0.2-0.4,0.3c0.5,0.3,0.9,0.5,1.3,0.7c0,0.2-0.1,0.4-0.1,0.6
		c-0.3,0-0.5-0.1-0.7-0.1c-0.2,0.1-0.4,0.4-0.5,0c-0.4,0.2-0.8,0.4-1.2,0.4c-0.3,0.1-0.5,0.1-0.4,0.4c0,0.4-0.1,0.8-0.6,0.9
		c0-0.1-0.1-0.3-0.1-0.4c0,0-0.1,0-0.1,0c0,0.3,0,0.7,0,1c-0.3,0.1-0.6,0.1-0.9,0.2c0,0.1,0.1,0.3,0.1,0.5c-0.2,0.1-0.5,0.1-0.7,0.2
		c0,0.2-0.1,0.4-0.1,0.6c0,0.2,0.1,0.4,0.1,0.5c0.6,0.1,0.8,0.5,1,1c0.1,0.3,0.4,0.5,0.7,0.7c0.3,0.2,0.5,0.4,0.8,0.6
		c-0.2,0.1-0.4,0.3-0.7,0.4c0.5,0.3,0.9,0.6,1.4,1c-0.3,0.4-0.6,0.8-0.9,1.1c0,0.1,0.1,0.2,0.2,0.4c-0.6-0.1-1-0.2-1.4-0.3
		c0,0,0,0.1-0.1,0.1c0.1,0,0.2,0.1,0.4,0.1c-0.3,0.1-0.6,0.2-0.8,0.3c-0.2-0.2-0.4-0.4-0.6-0.6c-0.1,0.2-0.2,0.3-0.2,0.5
		c0-0.1-0.1-0.1-0.1-0.2c-0.1-0.3-0.2-0.5-0.3-0.9c-0.3,0.5-0.5-0.1-0.8-0.1c0.2,0.6-0.1,0.8-0.6,0.8c0.1,0.3,0.2,0.5,0.3,0.8
		c0.4,0.1,0.8,0.3,1.3,0.4c0.2,0.1,0.5,0.1,0.7,0c0.5-0.3,0.7-0.1,0.9,0.3c-0.1,0.1-0.3,0.1-0.3,0.2c-0.2,0.3-0.5,0.4-0.8,0.2
		c-0.2-0.1-0.6-0.1-0.7,0.2c0.3,0.2,0.6,0.3,0.8,0.5c0.1,0.1,0.1,0.4,0,0.6c-0.2,0.3-0.5,0.8-0.4,1.1c0,0,0,0.1,0.1,0.2
		c0.2-0.3,0.4-0.5,0.7-0.7c-0.4,0.8,0.4,1,0.7,1.5c0.1,0,0.2,0,0.3,0c0.4,0,0.7,0.2,1.1-0.2c0.2-0.2,0.4-0.4,0.8-0.1
		c0.1,0.1,0.6,0.2,0.8-0.2c0.1-0.2,0.3-0.3,0.4-0.4c0.1,0,0.4,0.1,0.4,0.3c0.1,0.3,0,0.6,0.1,0.8c0,0-0.1,0.1-0.1,0.1
		c0.1,0.1,0.2,0.2,0.2,0.3c0,0.2-0.2,0.4-0.2,0.6c0.1,0.1,0.3,0.2,0.3,0.3c0,0.2-0.2,0.4-0.3,0.5c-0.1,0.1-0.4,0-0.5-0.1
		c-0.2-0.1-0.3-0.4-0.6-0.3c-0.1,0-0.3-0.2-0.3-0.4c0-0.1,0.2-0.2,0.3-0.3c0.1-0.1,0.3-0.1,0.4-0.2c0,0-0.1-0.1-0.1-0.1
		c-0.5,0.4-1.2,0.4-1.3,1c0,0.4,0.1,0.7,0.1,1c-0.3,0-0.5,0-0.8,0c-0.1,0.4,0.1,1-0.4,1.4c0,0,0,0.1,0,0.1c0.4,0.5-0.1,0.9-0.2,1.4
		c0,0.1-0.1,0.1-0.1,0.2c-0.2-0.2-0.4-0.4-0.6-0.6c0,0-0.1,0.1-0.1,0.1c0.1,0.1,0.2,0.2,0.3,0.3c0,0.1-0.1,0.2-0.1,0.3
		c0,0.3-0.1,0.7,0.5,0.6c0.1,0,0.2,0.1,0.2,0.1c-0.1,0.5,0.4,0.3,0.6,0.5c-0.1,0.1-0.2,0.3-0.3,0.4c0.2,0.3,0.5,0.5,0.7,0.8
		c-0.1,0.1-0.2,0.2-0.3,0.3c0.1,0.3,0.2,0.6,0.3,0.9c0,0.2,0.1,0.5,0,0.7c-0.1,0.3-0.2,0.7-0.3,1c0,0,0.1,0.1,0.2,0.2
		c0.1-0.2,0.1-0.4,0.2-0.5c0.2,0.1,0.3,0.2,0.5,0.3c0-0.1,0.1-0.3,0.1-0.4c-0.2,0-0.3,0-0.4,0c-0.1,0-0.1-0.1-0.1-0.2
		c0,0,0.1-0.1,0.1-0.1c0.3-0.1,0.5-0.1,0.8-0.1c0,0.1,0.1,0.3,0.1,0.3c-0.1,0.2-0.2,0.4-0.3,0.5c0.1,0,0.3,0,0.4,0.1
		c0,0,0.1,0,0.1,0c0.3,0.3,0.5,0.4,0.9,0.1c0,0.1-0.1,0.3-0.1,0.4c0.1,0,0.1,0,0.2,0c0.2-0.1,0.3-0.3,0.5,0.1
		c0.1,0.2,0.3,0.3,0.4,0.4c0,0-0.1,0.2-0.1,0.3c-0.2,0.1-0.3,0.2-0.5,0.2c-0.2,0-0.3-0.2-0.4-0.2c-0.3,0.2-0.5,0.3-0.6,0.4
		c0,0.2,0,0.5-0.1,0.6c-0.3,0.2-0.7,0.3-1,0.4c0.1,0.1,0.2,0.2,0.3,0.3c0.2-0.2,0.3-0.3,0.5-0.4c0.1,0.2,0.3,0.5,0.3,0.6
		c-0.4,0.4-0.8,0.8-1.2,1.1c-0.1,0.1-0.3,0-0.5,0c0.3,0.2,0.6,0.4,0.2,0.9c0.7-0.4,0.8,0.4,1.2,0.4c0.5-0.5,0.5-0.5,0.9-0.3
		c0.1-0.2,0.2-0.4,0.3-0.4c0.1-0.1,0.3,0.1,0.5,0.1c-0.1-0.2-0.2-0.4-0.3-0.5c0.5,0.2,0.7,0.7,0.8,1.2c0.1,0,0.2,0.1,0.4,0.2
		c-0.2,0.2-0.3,0.3-0.4,0.4c0,0,0,0.1,0.1,0.1c0.3-0.1,0.5-0.2,0.8-0.3c0,0.2-0.1,0.4-0.1,0.5c0,0,0.1,0.1,0.1,0.1
		c0.2-0.7,0.7-0.9,1.3-1c0.1,0.3,0.3,0.5,0.4,0.9c0-0.5-0.1-0.8-0.1-1.2c0.5,0,1-0.1,1.5,0c0.4,0.1,0.8,0.3,1.2,0.4
		c-0.4,0.4-0.7,0.8-0.6,1.4c0.6-0.1,0.6-0.1,0.5,0.5c0,0.1,0.1,0.2,0.1,0.3c0,0.1,0,0.3,0,0.4c-0.3,0.5-0.3,1.5,0,1.9
		c-0.1,0.1-0.2,0.3-0.1,0.4c0.1,0.3,0.1,0.6,0.3,0.9c0.2,0.5,0.7,0.8,1.2,0.6c0.1,0,0.3,0,0.4,0.1c0.1,0.1,0.2,0.3,0.2,0.5
		c-0.3,0.3-0.7,0.4-1.2,0.1c0.2,0.2,0.5,0.3,0.7,0.4c0.5,0.1,0.6,0.3,0.5,0.8c-0.2,0.7,0.4,1.3,1,1.2c0.1,0.2,0.1,0.4,0.3,0.5
		c0.4,0.3,0.2,0.6,0,1c-0.1,0.2-0.3,0.4-0.5,0c-0.1,0.1-0.2,0.2-0.3,0.3c0-0.2,0-0.3-0.1-0.5c-0.2,0.1-0.4,0.2-0.6,0.3
		c0.4,0.4,0.2,0.8-0.1,1.1c0,0.1-0.2,0.1-0.3,0.1c-0.1,0-0.1-0.2-0.1-0.3c0-0.1,0-0.3,0.1-0.5c-0.2,0.3-0.4,0.5-0.6,0.7
		c0,0-0.1-0.1-0.1-0.1c0-0.2,0-0.3-0.1-0.5c-0.1,0-0.1,0-0.2,0c0,0.2,0.1,0.4,0.1,0.5c0,0.1,0.1,0.2,0.1,0.3c-0.2,0.5,0,1.1-0.5,1.5
		c-0.1,0.1-0.1,0.2-0.2,0.3c-0.2-0.2-0.5-0.3-0.6-0.5c-0.1-0.3-0.1-0.8,0.1-1c0.3-0.5-0.1-1,0-1.5c0-0.1-0.1-0.2-0.1-0.3
		c0,0-0.1,0-0.1,0c0.2,0.4-0.2,0.8,0,1.2c0.1,0.2,0.1,0.5-0.2,0.7c0-0.2-0.1-0.3-0.1-0.5c-0.1,0.2-0.1,0.3-0.2,0.3c0,0-0.1,0-0.2,0
		c0,0-0.1-0.1-0.1-0.1c0.3-0.5-0.1-0.5-0.4-0.6c0-0.2,0-0.3,0-0.5c0,0-0.1,0-0.1,0c-0.1,0.2-0.2,0.3-0.2,0.5c0,0-0.1,0-0.1,0
		c0-0.4-0.1-0.8-0.1-1.2c0,0-0.1,0-0.2-0.1c0.1-0.2,0.1-0.3,0.2-0.4c-0.6-0.1-0.3-0.6-0.4-0.7c-0.3-0.4-0.6-0.7-0.8-1.1
		c0,0.1,0.1,0.2,0.1,0.3c-0.1,0.2-0.3,0.3-0.4,0.5c0.1,0.2,0,0.6-0.7,1c-0.2-0.5-0.5-1-0.7-1.6c-0.6-0.5-1.3-0.8-2.2-0.9
		c0.2,0.5,0.3,1.1,0.6,1.5c0.2,0.4,0,0.6-0.3,0.8c-0.2-0.6-0.3-1.1-0.5-1.6c0,0-0.1,0-0.1,0c0,0.3,0.1,0.6,0.1,0.9
		c-0.4-0.2-0.2-1-0.9-0.4c0-0.3-0.1-0.6-0.1-0.9c-0.5-0.3-1-0.6-1.5-0.9c-0.2,0.2-0.3,0.3-0.4,0.4c-0.4,0.2-0.8,0.1-1.2-0.2
		c-0.1-0.1-0.3-0.1-0.4-0.1c0.1,0.3,0.2,0.6,0.4,0.9c0.1,0.2,0.2,0.4,0.4,0.6c0.1,0.2,0.3,0.3,0.5,0.5c0.1,0.1,0.2,0.1,0.4,0.2
		c0.6,0.4,0.8,0.7,1,1.4c0.2,0.5,0.1,0.8-0.3,1c-0.2-0.1-0.4-0.3-0.6-0.4c-0.2-0.1-0.5-0.1-0.8-0.2c-0.4-0.2-0.6-0.7-1.1-0.4
		c-0.2-0.4-0.5-0.1-0.7-0.2c-0.1,0.2-0.2,0.5-0.3,0.7c-0.1,0-0.1,0-0.2-0.1c0-0.2,0.1-0.3,0.1-0.5c-0.1,0-0.3,0-0.4,0
		c0,0.2,0,0.4,0.1,0.5c0.3,0.3,0.6,0.5,0.9,0.7c0.1,0.1,0.3,0.2,0.3,0.3c0.1,0.4,0.4,0.5,0.7,0.6c0.2,0.1,0.5,0,0.5,0.4
		c0,0.2,0.2,0.4,0.2,0.7c0,0.3-0.1,0.6-0.6,0.5c-0.1,0-0.3,0-0.4,0c0.3,0.6-0.1,1-0.4,1.5c0.3-0.1,0.6-0.1,0.9-0.2
		c-0.3,0.4-0.6,0.8-0.9,1.2c0.2,0.5,0.1,0.7-0.5,1.2c-0.3-0.3-0.7-0.7-1-1c0,0.2,0,0.3,0,0.5c-0.2-0.1-0.3-0.1-0.4-0.2
		c-0.1,0.3-0.1,0.7-0.2,1c0,0.1-0.1,0.3-0.1,0.4c-0.1-0.1-0.3-0.1-0.4-0.2c-0.2-0.2-0.4-0.5-0.6-0.7c0,0-0.1,0.1-0.1,0.1
		c0.2,0.2,0.3,0.4,0.5,0.6c0,0-0.1,0.1-0.1,0.1c-0.1-0.1-0.2-0.2-0.3-0.3c0.1,0.4,0.1,0.7-0.3,0.8c0,0,0,0.2,0,0.3
		c0,0.1,0,0.3-0.1,0.4c0,0-0.1,0-0.1,0c-0.1-0.2-0.2-0.3-0.3-0.5c-0.2,0-0.4,0-0.6,0.1c0.4,0.4,0.4,0.4-0.1,0.7
		c-0.1,0-0.1,0.1-0.1,0.2c0,0,0,0,0.1,0.1c0.1-0.1,0.2-0.1,0.3-0.2c0.3,0.6,0.5,1.2,0.8,1.7c0.2-0.1,0.3-0.1,0.5-0.2
		c0,0.3,0,0.6,0,0.9c0.2,0,0.3-0.1,0.4-0.1c0,0,0,0.1,0,0.1c-0.1,0.1-0.2,0.1-0.3,0.2c0,0,0,0.1,0.1,0.1c0.3-0.1,0.5-0.2,0.9-0.3
		c0,0.2,0,0.3,0,0.4c0.3,0,0.7-0.1,1-0.1c0.2,0,0.4,0.2,0.6,0.4c0,0-0.1,0.2-0.1,0.3c0.1,0.1,0.2,0.2,0.4,0.3
		c-0.2,0.1-0.4,0.2-0.5,0.3c0.4,0.5,1.2-0.2,1.5,0.7c0.2,0.5,1,0.6,1,1.2c-0.2,0.2-0.4,0.3-0.4,0.4c0.1,0.4-0.1,0.8,0.2,1.2
		c0,0-0.1,0.2-0.2,0.3c-0.1,0-0.2,0-0.4,0c0.4,0.5,0.4,0.5-0.3,0.9c0-0.1-0.1-0.2-0.1-0.3c0,0,0,0-0.1,0.1c0,0.1,0,0.3,0,0.5
		c-0.2-0.2-0.3-0.3-0.5-0.5c0,0.2,0.1,0.3,0.1,0.4c-0.2,0-0.3,0-0.4,0c-0.5,0.3-1.2,0.4-1.5,1c0,0.1-0.2,0.1-0.3,0.2
		c-0.7,0.3-1.3,0.5-1.8,1.1c0.1,0.1,0.2,0.2,0.3,0.4c-0.5,0-1-0.1-1.3,0.4c0,0-0.1,0-0.2,0c-0.4,0-0.5,0.3-0.6,0.6
		c-0.1,0.2-0.2,0.3-0.4,0.4c-0.1,0.1-0.3,0.1-0.3,0.1c-0.1,0.4-0.3,0.3-0.6,0.3c-0.2,0-0.6,0-0.7,0.4c0.2,0,0.4,0.1,0.5,0.1
		c0.1,0.1,0.3,0.2,0.4,0.4c0,0-0.1,0.2-0.1,0.2c-0.2,0-0.5,0-0.7-0.1c-0.1,0-0.2-0.2-0.2-0.2c0,0.3,0,0.5-0.1,0.7
		c0,0.1-0.3,0.1-0.4,0.2c0-0.2,0-0.3,0-0.5c-0.2,0.4-0.4,0.6-0.6,0.9c0.1,0.1,0.2,0.2,0.3,0.4c0.2-0.2,0.4-0.4,0.6-0.6
		c0.3-0.3,0.6-0.5,1-0.6c0.4,0,0.5,0.1,0.4,0.4c-0.1,0.4-0.2,0.9-0.3,1.3c0.1,0,0.1,0.1,0.2,0.1c0.3-0.3,0.6-0.6,0.9-0.9
		c0.3-0.4,0.8-0.4,1.1-0.3c0.1-0.3,0.1-0.5,0.2-0.9c0.2,0.1,0.2,0.1,0.2,0.2c0.1,0.1,0.2,0.1,0.3,0.2c0-0.1-0.1-0.2-0.1-0.3
		c0-0.2-0.1-0.3-0.1-0.5c0.1,0,0.1,0,0.2,0c0.1,0.2,0.1,0.4,0.3,0.7c0.3-0.4,0.9-0.4,0.8-1c0.2,0,0.4,0.1,0.4,0.1
		c0.4-0.3,0.7-0.7,1.1-1c0.1-0.1,0.2-0.3,0.4-0.1c0.1,0.1,0.4,0,0.6-0.1c0.5-0.2,0.9-0.4,1.5-0.4c0.4,0,0.8-0.1,1.2-0.2
		c0.3-0.1,0.6-0.3,0.8-0.2c0.2,0.1,0.2,0.5,0.2,0.8c0,0.1-0.2,0.3-0.3,0.5c0.3,0,0.4-0.1,0.5-0.1c0.1-0.2,0.1-0.4,0.1-0.6
		c0-0.4,0.1-0.8,0.3-1.1c0-0.1,0-0.2,0.1-0.2c0.1-0.3,0.2-0.6,0.4-0.9c0.2-0.3,0.6-0.4,0.9-0.7c0,0,0.1,0.1,0.1,0.1
		c0.5-0.4,1-0.8,1.4-1.1c0-0.1-0.1-0.3-0.1-0.3c0.2-0.1,0.4-0.2,0.6-0.2c0.3-0.3,0.6-0.6,1-0.9c0.3-0.2,0.7-0.3,1.1-0.4
		c0,0.2-0.1,0.4-0.1,0.7c0.1,0,0.2,0,0.3,0c0.2-0.2,0.4-0.5,0.4-0.7c0.1-0.3,0.3-0.5,0.6-0.5c0.5,0.1,0.7-0.1,0.7-0.5
		c0.8-0.3,1.6-0.6,2.4-0.9c-0.2-0.2-0.4-0.3-0.5-0.4c0-0.2,0-0.5-0.1-0.8c0.3,0.2,0.6,0.2,0.8,0.4c0.1,0.1,0.2,0.1,0.2,0.2
		c0.1,0.4,0.3,0.7,0.7,0.6c0.1,0,0.3,0.1,0.3,0.2c0.1,0.5,0.4,0.4,0.8,0.3c-0.1,0.4,0.2,0.9-0.2,1.2c0,0.2,0,0.4,0,0.5
		c0,0.2,0.1,0.4,0.1,0.6c0.1,0.4,0.3,0.8,0.3,1.2c0.1,0.4,0.4,0.9,0.8,0.9c-0.1-0.2-0.2-0.4-0.3-0.6c0,0,0.1,0,0.1-0.1
		c0.1,0.2,0.3,0.4,0.4,0.5c0.1,0.2,0.2,0.4,0.6,0.4c0.2,0,0.5,0.1,0.4,0.5c-0.3,0-0.5,0-0.8,0.1c-0.1,0-0.2,0.1-0.3,0.1
		c0.1,0.1,0.1,0.2,0.2,0.3c0.1,0.1,0.3,0.1,0.3,0.2c0.2,0.3,0.4,0.4,0.8,0.1c0,0,0.3,0,0.3,0.1c0.1,0.3,0.2,0.6,0.2,0.9
		c0,0.3,0.2,0.5,0.4,0.6c0.2,0.1,0.5,0.2,0.7,0.3c0.1,0,0.2-0.1,0.4-0.2c-0.1,0.7,0.4,0.6,0.8,0.7c0.9,0.2,1.9,0.3,2.8,0.5
		c0.2-0.2,0.2-0.2,0.5,0c0.1,0.1,0.3,0.2,0.4,0.2c0.4,0,0.9-0.1,1.3-0.1c0.1,0,0.1-0.2,0.1-0.2c-0.2-0.4,0.1-1-0.5-1.3
		c0,0,0-0.1,0-0.1c0.1-0.4-0.1-0.6-0.5-0.7c0.8-1.4,2.1-2.5,2.3-4.1c-0.5,1.2-1.1,2.2-2,3.2c-0.1-0.4-0.2-0.7-0.3-0.9
		c-0.2-0.3-0.6-0.5-0.8-0.8c-0.1-0.3,0-0.8,0-1.2c0-0.1,0-0.3,0-0.4c0-0.3-0.1-0.7,0-1c0.1-0.3,0.3-0.7,0.5-0.7
		c0.4,0,0.9,0.1,1.3,0.2c0.3,0.1,0.5,0.2,0.8,0.3c0.3,0,0.5,0.1,0.4,0.4c0,0.1,0.1,0.2,0.2,0.3c0.1,0,0.1,0,0.2,0c0-0.2,0-0.4,0-0.7
		c0.3-0.2,0.5-0.1,0.8,0.4c0.7,0,0.5,0.9,1,0.8c0,0.3,0,0.5,0,0.7c0.1,0.6,0.4,1.2,0.2,1.9c-0.2,0.7,0.2,1.1,0.9,1.3
		c0.1,0,0.2,0.1,0.3,0.2c0,0,0,0.1,0,0.1c-0.2,0-0.4,0-0.6,0c0,0,0,0.1,0,0.1c0.3,0.1,0.7,0.2,1,0.3c0.5,0.1,1.1,0,1.2,0.7
		c0-0.1,0-0.3,0.1-0.4c0.1-0.1,0.4-0.3,0.4-0.3c0.3,0.3,0.6,0.1,1,0.1c0.2,0,0.4,0,0.6,0c0,0.3-0.1,0.5-0.1,0.7
		c-0.4,0.3-0.7,0.6-1.2,0.9c0.5,0,1-0.5,1.2-0.9c0.5-0.3,0.8-0.8,0.9-1.3c0-0.1,0.2-0.2,0.2-0.3c0.1,0.1,0.2,0.1,0.3,0.2
		c0.1,0.2,0.2,0.5,0.3,0.7c0.1,0.2,0.2,0.4,0.3,0.6c0,0.1,0.1,0.1,0.3,0.2c-0.1-0.5-0.2-0.9-0.3-1.4c0.7,0.7,2.2,1,2.5,0.8
		c0.4,0.1,0.7,0.1,1,0.1c0,0.1,0,0.2,0,0.3c0.1-0.2,0.2-0.5,0.4-0.6c0.6-0.2,1.2-0.2,1.8-0.1c0.4,0.1,0.8,0.1,1.2,0
		c0.3,0,0.5-0.3,0.9-0.5c0,0.3,0,0.7-0.1,0.8c-0.2,0.2-0.6,0.3-0.8,0.4c0.1,0.2,0.2,0.4,0.3,0.6c0.4,0.8,1.2,1,2,1.2
		c0.5,0.1,0.6,0.3,0.5,0.8c0.5-0.4,0.9-0.8,1.1-1.3c-0.1-0.2-0.3-0.4-0.2-0.5c0.1-0.2,0.3-0.3,0.5-0.4c0.3-0.1,0.8-0.1,1-0.3
		c0.2-0.2,0.3-0.2,0.5-0.2c0.1,0,0.3,0.1,0.4,0.1c0-0.4-0.1-0.7-0.1-1.1c-0.6,0-0.3-0.5-0.5-0.8c-0.1,0-0.2,0-0.3,0
		c0-0.2,0-0.3,0-0.4c-0.2,0.1-0.4,0.1-0.6,0.2c0,0,0-0.1-0.1-0.1c0.4-0.3,0.7-0.5,1.1-0.8c-0.2-0.1-0.3-0.1-0.4-0.1
		c-0.3,0.1-0.6-0.1-0.6-0.4c0.1-0.3,0.3-0.5,0.5-0.7c0.1-0.1,0.3-0.1,0.4-0.2c0,0-0.1-0.1-0.1-0.1c-0.1,0.1-0.3,0.2-0.4,0.2
		c0,0-0.1-0.1-0.1-0.1c0.2-0.2,0.5-0.3,0.7-0.5c0-0.1-0.1-0.1-0.2-0.2c-0.2,0.1-0.3,0.2-0.4,0.3c0,0,0,0.1-0.1,0.2
		c-0.1,0.1-0.3,0.2-0.4,0.2c-0.7-0.1-0.7-0.1-0.7-0.8c0,0,0-0.1-0.1-0.1c-0.1,0.1-0.2,0.1-0.1,0.2c0.1,0.5-0.3,0.6-0.6,0.7
		c-0.2,0.1-0.5,0.2-0.7,0.3c0,0-0.1,0-0.2,0c-0.2-0.1-0.4-0.3-0.7-0.1c0,0-0.2-0.1-0.2-0.1c0-0.3,0-0.7,0-1c0.5,0.1,0.9,0.1,1.1-0.4
		c0.1-0.3,0.3-0.5,0.7-0.5c0.3,0,0.7-0.1,0.6-0.6c0.4-0.1,0.7-0.1,1.2-0.2c0.3-0.3,0.7-0.6,1.2-1.1c-0.7-0.2-0.3-0.7-0.4-1
		c-0.3-0.5,0.1-0.8,0.3-1.3c0.2,0.3,0.4,0.5,0.5,0.8c0.4-0.3,0.4,0.2,0.6,0.4c0.1-0.1,0.3-0.1,0.5-0.2c-0.1-0.2-0.2-0.3-0.2-0.3
		c-0.3-0.1-0.4-0.1-0.5-0.1c-0.4-0.2-0.7-0.5-1.1-0.7c-0.1-0.1-0.1-0.4,0-0.4c0.2-0.2,0.3-0.4,0.4-0.7c0.1-0.4-0.2-0.5-0.4-0.6
		c-0.3-0.2-0.6-0.4-0.9-0.6c-0.3-0.2-0.8-0.2-1.1-0.4c-0.2-0.1-0.4-0.4-0.5-0.6c0-0.2,0.1-0.5,0.3-0.7c0.3-0.5,0.3-0.8,0-1.3
		c-0.1-0.2-0.1-0.6,0-0.8c0.1-0.4,0.3-0.7,0.6-1.1c0,0,0.1,0,0.2,0c0,0,0-0.1,0-0.1c-0.1,0-0.2-0.1-0.4,0c-0.2,0-0.4,0.1-0.5,0.1
		c-0.2-0.2-0.3-0.5-0.5-0.7c-0.2-0.1-0.3-0.2-0.2-0.5c0-0.2,0-0.4,0-0.6c0-0.4,0.2-0.8,0.5-0.8c0.3,0,0.5-0.1,0.8-0.1
		c0,0-0.1-0.1-0.1-0.1c0.1-0.2,0.2-0.5,0.2-0.5c0.7,0,1.5-0.1,2.2,0.3c0-0.2-0.1-0.4-0.2-0.5c-0.3-0.2-0.6-0.3-0.9-0.5
		c-0.4-0.1-0.8,0.1-1.2-0.3c-0.1-0.1-0.4-0.2-0.6-0.2c-0.2,0-0.3,0-0.6,0c-0.4,0.7-0.8,1-1.2,0.9c-0.1,0.2-0.2,0.5-0.3,0.7
		c-0.2-0.1-0.3-0.2-0.5-0.3c-0.3,0.2-0.5,0.3-0.9,0.6c0,0,0,0.2-0.1,0.4c-0.1-0.1-0.2-0.2-0.3-0.3c0,0,0,0.1,0,0.1
		c-0.5,0-1,0.1-1.5,0c-0.4-0.1-0.7-0.3-1.2-0.5c-0.3,0.1-0.7,0.1-0.9-0.2c-0.3-0.6-0.2-0.9,0.2-1.1c0.3-0.1,0.6-0.2,0.8-0.3
		c0.1,0.5,0.2,0.9,0.3,1.4c0.1,0,0.1,0,0.2,0c-0.3-0.8-0.2-1.6,0.1-2.3c-0.1,0-0.1,0-0.2-0.1c-0.1,0.1-0.2,0.3-0.3,0.5
		c-0.2,0.1-0.6,0.2-1,0.3c0-0.4-0.1-0.9,0.6-0.7c-0.3-0.3-0.2-0.5,0-0.7c0.1-0.2,0.3-0.4,0.3-0.6c-0.1-0.4,0.1-0.6,0.3-0.9
		c0.1-0.2,0.3-0.4,0.3-0.6c0-0.2-0.2-0.4-0.4-0.5c-0.2-0.2-0.3-0.3-0.5-0.4c-0.2-0.1-0.4-0.1-0.5-0.2c0.3,0.3,0.6,0.4,0.8,0.7
		c0.1,0.1,0.2,0.4,0.2,0.6c0,0.2-0.3,0.5-0.4,0.5c-0.4,0-0.9-0.1-1.3-0.3c-0.4-0.1-0.6-0.4-0.5-0.8c0-0.1-0.1-0.2-0.1-0.3
		c-0.1-0.1-0.2-0.3-0.2-0.4c0.1-0.1,0.3-0.2,0.4-0.3c0.1-0.1,0.3-0.1,0.4-0.1c0.1,0.1,0.1,0.3,0.2,0.4c0.2-0.3,0.9-0.2,0.5-0.9
		c0.3-0.1,0.5-0.2,0.7-0.3c0,0,0-0.1,0-0.1c-0.2,0-0.5-0.1-0.7-0.1c-0.3,0-0.5,0-0.8,0c0-0.1,0-0.1-0.1-0.2c0.3-0.2,0.5-0.4,0.8-0.6
		c0.1-0.2,0.2-0.5,0.3-0.8c-0.3,0-0.6,0-0.9,0c0,0,0-0.1,0-0.1c0.3-0.2,0.5-0.4,0.8-0.6c0,0,0-0.1-0.1-0.1c-0.1,0-0.3,0-0.5,0
		c0.1-0.2,0.1-0.3,0.3-0.5c-0.3,0-0.6-0.1-0.8-0.1c-0.1-0.2-0.2-0.4-0.4-0.6c-0.2-0.2-0.4-0.3-0.7-0.4c0-0.1,0-0.1,0-0.2
		c0.6,0,0.7-1.1,1.5-0.5c0-0.1-0.1-0.2-0.1-0.4c0.2,0.1,0.4,0.2,0.4,0.2c0.2-0.2,0.4-0.4,0.5-0.6c-0.2-0.2-0.5-0.3-0.7-0.5
		c0-0.1,0-0.2,0-0.4c-0.5,0.1-0.7-0.1-0.5-0.6c-0.3,0.1-0.5,0.2-0.8,0.3c0-0.2,0-0.3,0.1-0.5c-0.2,0.1-0.4,0.2-0.6,0.3
		c-0.1-0.2-0.3-0.3-0.4-0.5c-0.1-0.1-0.1-0.3,0-0.5c0-0.1,0.3,0,0.4-0.1c0.2,0,0.4-0.1,0.6-0.1c0,0,0-0.1,0-0.1
		c0.1,0.1,0.2,0.1,0.4,0.2c0-0.2-0.1-0.3-0.1-0.5c0.2,0,0.3,0.1,0.4,0.1c0,0,0-0.1,0-0.1c0.2-0.1,0.3-0.2,0.5-0.3
		c0.1-0.2,0.2-0.5,0.3-0.7c0.1-0.1,0.4,0,0.5,0c0-0.1,0-0.3,0.1-0.3c0.2-0.1,0.4-0.3,0.5-0.4c-0.2-0.2-0.3-0.3-0.4-0.4
		c-0.1-0.2-0.2-0.3-0.3-0.5c0.1-0.7,0.8-0.2,1.2-0.5c-0.3,0-0.5,0-0.6,0c-0.1-0.2-0.3-0.4-0.4-0.6c0.1-0.3,0.2-0.5,0.3-0.7
		c-0.3-0.1-0.5-0.3-0.7-0.4c-0.3,0.2-0.6,0.5-0.9,0.7c-0.1,0-0.1-0.1-0.2-0.1c0.1-0.2,0.1-0.3,0.2-0.5c0-0.1,0.1-0.2,0.1-0.3
		c-0.1-0.6-0.2-1.2,0.2-1.8c-0.1-0.1-0.3-0.2-0.5-0.4c0.2-0.2,0.4-0.4,0.7-0.5c-0.2-0.3,0-0.7,0.3-0.9c0.8-0.6,0.8-2.1,0-2.6
		c-0.1-0.1-0.2-0.3-0.3-0.4c0.2-0.1,0.3-0.3,0.5-0.4c0.3-0.1,0.5-0.2,0.8-0.3c0.3-0.1,0.5-0.3,0.8-0.4c0.2-0.1,0.5-0.2,0.7-0.3
		c0.3-0.1,0.6-0.2,0.9-0.3c0-0.1,0-0.1-0.1-0.2c-0.3,0.1-0.5,0.2-0.8,0.3c0-0.1,0-0.2,0-0.3c-0.2,0-0.3,0-0.5,0.1
		c-0.2,0.1-0.3,0.3-0.5,0.4c-0.2,0.1-0.4,0.3-0.5,0.4c-0.3-0.1-0.6-0.2-0.8-0.3c-0.1,0-0.2-0.1-0.2-0.2c0.1-0.5-0.3-0.7-0.5-0.9
		c-0.2-0.2-0.3-0.3-0.5-0.5c0-0.5,0.2-0.6,0.6-0.7c0.4-0.1,0.8-0.3,1.2-0.5c0.2-0.1,0.3-0.3,0.5-0.5c0-0.3,0.2-0.5,0.7-0.5
		C287.6,73.6,287.9,73.6,288.1,73.5L288.1,73.5z M289,132.2c0,0,0.1-0.1,0.1-0.1c-0.7-0.4-0.9-1.1-1.1-1.8c-0.2-0.6-0.6-0.9-1.2-1.1
		c0,0.3,0,0.5,0,0.8c0.6-0.1,0.3,0.5,0.6,0.8c0.1-0.2,0.1-0.4,0.2-0.7c0.3,0.3,0.5,0.5,0.4,1c0,0.2,0,0.4,0.1,0.5
		C288.4,131.8,288.7,132,289,132.2z M260.3,121.7c-0.1-0.3-0.2-0.6-0.2-0.9c0,0-0.1-0.1-0.1-0.1c-0.1-0.2-0.2-0.3-0.3-0.5
		c-0.1-0.2-0.3-0.5-0.4-0.6c-0.2,0-0.5,0.2-0.6,0.3c0.3,0.2,0.6,0.3,0.6,0.5C259.2,121.2,260,121.2,260.3,121.7z M248.5,69.8
		c-0.5,0-1.2-0.1-1.3,0.5c-0.1,0.3,0.3,0.7,0.4,1.1c0.1,0,0.2,0,0.2,0C248.1,70.9,248.3,70.4,248.5,69.8z M294,130.4
		c0.2-0.3,0.4-0.5,0.6-0.7c0.2-0.3,0.4-0.7,0.5-1.1c0.1-0.2,0-0.4,0-0.7c0,0-0.1,0-0.1,0C294.7,128.7,294.4,129.5,294,130.4z
		 M290.7,55.9c-0.2,0.5-0.3,0.9-0.5,1.4c0.2,0.1,0.4,0.2,0.5,0.2C290.7,57,290.7,56.5,290.7,55.9z M271.5,123.8
		c0.3-0.5,0.5-0.9,0.8-1.4C272,122.5,272,122.5,271.5,123.8z M286.5,85.3c0.1,0.1,0.1,0.1,0.2,0.2c0.1-0.2,0.4-0.4,0.4-0.6
		c0-0.2-0.2-0.4-0.4-0.7c0,0-0.1,0-0.1,0.1c0.1,0.2,0.1,0.4,0.2,0.6C286.7,85,286.6,85.1,286.5,85.3z M254.6,122.6
		c-0.5-0.1-0.8,0.2-0.8,0.7C254.1,123.1,254.3,122.8,254.6,122.6z M236.3,130.5c0,0-0.1-0.1-0.1-0.1c-0.1,0.2-0.3,0.5-0.4,0.7
		c0.2,0,0.4,0,0.5,0C236.3,130.9,236.3,130.7,236.3,130.5z M249.3,61.6C249.3,61.6,249.4,61.6,249.3,61.6c0.3-0.2,0.5-0.3,0.8-0.5
		c-0.2,0-0.4-0.1-0.6-0.1C249.5,61.2,249.4,61.4,249.3,61.6z M247.6,99c0,0-0.1-0.1-0.1-0.1c-0.2,0.3-0.7,0.2-0.7,0.7
		c0.1,0.1,0.1,0.1,0.2,0.2C247.2,99.5,247.4,99.3,247.6,99z"/>
	<path class="st1" d="M280.4,127.6c0-0.2,0.1-0.4,0.1-0.7c-0.2,0-0.4,0-0.6,0c-0.3,0-0.7,0.2-1-0.1c0,0-0.3,0.1-0.4,0.3
		c-0.1,0.1-0.1,0.3-0.1,0.4c-0.1-0.7-0.7-0.6-1.2-0.7c-0.3-0.1-0.7-0.2-1-0.3c0,0,0-0.1,0-0.1c0.2,0,0.4,0,0.6,0c0,0,0-0.1,0-0.1
		c-0.1-0.1-0.2-0.1-0.3-0.2c-0.7-0.3-1.1-0.6-0.9-1.3c0.2-0.7-0.1-1.2-0.2-1.9c0-0.2,0-0.4,0-0.7c-0.5,0.1-0.3-0.9-1-0.8
		c-0.3-0.5-0.5-0.6-0.8-0.4c0,0.3,0,0.5,0,0.7c-0.1,0-0.1,0-0.2,0c-0.1-0.1-0.2-0.2-0.2-0.3c0-0.3-0.2-0.4-0.4-0.4
		c-0.3,0-0.5-0.2-0.8-0.3c-0.4-0.1-0.9-0.3-1.3-0.2c-0.2,0-0.4,0.4-0.5,0.7c-0.1,0.3,0,0.7,0,1c0,0.1,0,0.3,0,0.4
		c0,0.4-0.1,0.8,0,1.2c0.1,0.3,0.5,0.5,0.8,0.8c0.2,0.2,0.2,0.6,0.3,0.9c0.8-1,1.5-2,2-3.2c-0.3,1.6-1.6,2.7-2.3,4.1
		c0.4,0.1,0.6,0.3,0.5,0.7c0,0,0,0.1,0,0.1c0.5,0.3,0.3,0.9,0.5,1.3c0,0.1-0.1,0.2-0.1,0.2c-0.4,0.1-0.9,0.1-1.3,0.1
		c-0.1,0-0.3-0.1-0.4-0.2c-0.3-0.2-0.3-0.2-0.5,0c-1-0.2-1.9-0.3-2.8-0.5c-0.4-0.1-0.9,0.1-0.8-0.7c-0.2,0.1-0.3,0.2-0.4,0.2
		c-0.3-0.1-0.5-0.2-0.7-0.3c-0.2-0.1-0.4-0.3-0.4-0.6c0-0.3-0.1-0.6-0.2-0.9c0-0.1-0.3-0.1-0.3-0.1c-0.3,0.3-0.6,0.2-0.8-0.1
		c-0.1-0.1-0.2-0.1-0.3-0.2c-0.1-0.1-0.1-0.2-0.2-0.3c0.1-0.1,0.2-0.1,0.3-0.1c0.2,0,0.5,0,0.8-0.1c0.1-0.3-0.2-0.5-0.4-0.5
		c-0.4,0.1-0.4-0.2-0.6-0.4c-0.1-0.2-0.3-0.4-0.4-0.5c0,0-0.1,0-0.1,0.1c0.1,0.2,0.2,0.4,0.3,0.6c-0.4,0-0.7-0.5-0.8-0.9
		c-0.1-0.4-0.2-0.8-0.3-1.2c-0.1-0.2-0.1-0.4-0.1-0.6c0-0.2,0-0.3,0-0.5c0.4-0.3,0.1-0.7,0.2-1.2c-0.4,0.1-0.8,0.2-0.8-0.3
		c0-0.1-0.2-0.2-0.3-0.2c-0.5,0-0.6-0.3-0.7-0.6c0-0.1-0.1-0.2-0.2-0.2c-0.2-0.1-0.4-0.2-0.8-0.4c0,0.3,0.1,0.6,0.1,0.8
		c0.2,0.1,0.3,0.3,0.5,0.4c-0.9,0.3-1.6,0.6-2.4,0.9c0,0.4-0.2,0.6-0.7,0.5c-0.3-0.1-0.5,0.2-0.6,0.5c-0.1,0.3-0.3,0.5-0.4,0.7
		c0,0.1-0.2,0-0.3,0c0.1-0.3,0.1-0.5,0.1-0.7c-0.4,0.1-0.8,0.2-1.1,0.4c-0.4,0.3-0.7,0.6-1,0.9c-0.2,0.1-0.4,0.1-0.6,0.2
		c0,0,0,0.2,0.1,0.3c-0.4,0.3-0.9,0.7-1.4,1.1c0,0-0.1-0.1-0.1-0.1c-0.3,0.2-0.6,0.4-0.9,0.7c-0.2,0.2-0.3,0.6-0.4,0.9
		c0,0.1,0,0.2-0.1,0.2c-0.2,0.3-0.3,0.7-0.3,1.1c0,0.2-0.1,0.4-0.1,0.6c-0.1,0-0.3,0.1-0.5,0.1c0.1-0.2,0.3-0.3,0.3-0.5
		c0-0.3,0-0.7-0.2-0.8c-0.1-0.1-0.5,0.1-0.8,0.2c-0.4,0.1-0.8,0.2-1.2,0.2c-0.5,0-1,0.2-1.5,0.4c-0.2,0.1-0.5,0.2-0.6,0.1
		c-0.2-0.2-0.3-0.1-0.4,0.1c-0.4,0.3-0.7,0.7-1.1,1c-0.1,0.1-0.3-0.1-0.4-0.1c0.1,0.6-0.6,0.6-0.8,1c-0.1-0.3-0.2-0.5-0.3-0.7
		c-0.1,0-0.1,0-0.2,0c0,0.2,0.1,0.3,0.1,0.5c0,0.1,0.1,0.2,0.1,0.3c-0.1-0.1-0.2-0.1-0.3-0.2c0,0-0.1-0.1-0.2-0.2
		c-0.1,0.3-0.1,0.6-0.2,0.9c-0.4-0.1-0.8-0.1-1.1,0.3c-0.3,0.3-0.6,0.6-0.9,0.9c-0.1,0-0.1-0.1-0.2-0.1c0.1-0.4,0.2-0.9,0.3-1.3
		c0.1-0.4,0-0.5-0.4-0.4c-0.4,0-0.8,0.2-1,0.6c-0.2,0.2-0.4,0.4-0.6,0.6c-0.1-0.2-0.2-0.3-0.3-0.4c0.2-0.3,0.3-0.6,0.6-0.9
		c0,0.2,0,0.3,0,0.5c0.2-0.1,0.4-0.1,0.4-0.2c0.1-0.2,0.1-0.4,0.1-0.7c0.1,0.1,0.1,0.2,0.2,0.2c0.2,0.1,0.4,0.1,0.7,0.1
		c0,0,0.2-0.2,0.1-0.2c-0.1-0.1-0.2-0.3-0.4-0.4c-0.1-0.1-0.3-0.1-0.5-0.1c0.1-0.4,0.4-0.4,0.7-0.4c0.2,0,0.5,0.1,0.6-0.3
		c0-0.1,0.2-0.1,0.3-0.1c0.1-0.1,0.3-0.3,0.4-0.4c0.1-0.3,0.3-0.6,0.6-0.6c0.1,0,0.2,0,0.2,0c0.3-0.5,0.8-0.3,1.3-0.4
		c-0.1-0.2-0.2-0.3-0.3-0.4c0.5-0.6,1.1-0.8,1.8-1.1c0.1,0,0.2-0.1,0.3-0.2c0.4-0.6,1-0.7,1.5-1c0.1,0,0.2,0,0.4,0
		c0-0.1,0-0.2-0.1-0.4c0.2,0.2,0.3,0.3,0.5,0.5c0-0.2,0-0.4,0-0.5c0,0,0,0,0.1-0.1c0,0.1,0.1,0.2,0.1,0.3c0.7-0.4,0.7-0.4,0.3-0.9
		c0.1,0,0.3,0.1,0.4,0c0.1-0.1,0.2-0.3,0.2-0.3c-0.3-0.4-0.1-0.8-0.2-1.2c0-0.1,0.2-0.2,0.4-0.4c0-0.7-0.8-0.8-1-1.2
		c-0.3-0.9-1.1-0.2-1.5-0.7c0.2-0.1,0.3-0.2,0.5-0.3c-0.2-0.1-0.3-0.2-0.4-0.3c0-0.1,0.2-0.3,0.1-0.3c-0.2-0.2-0.4-0.4-0.6-0.4
		c-0.3,0-0.6,0-1,0.1c0-0.1,0-0.2,0-0.4c-0.3,0.1-0.6,0.2-0.9,0.3c0,0,0-0.1-0.1-0.1c0.1-0.1,0.2-0.1,0.3-0.2c0,0,0-0.1,0-0.1
		c-0.1,0-0.2,0.1-0.4,0.1c0-0.3,0-0.6,0-0.9c-0.1,0-0.2,0.1-0.5,0.2c-0.3-0.6-0.5-1.1-0.8-1.7c-0.1,0.1-0.2,0.1-0.3,0.2
		c0,0,0,0-0.1-0.1c0-0.1,0.1-0.2,0.1-0.2c0.5-0.2,0.5-0.2,0.1-0.7c0.2,0,0.4,0,0.6-0.1c0.1,0.1,0.2,0.3,0.3,0.5c0,0,0.1,0,0.1,0
		c0-0.1,0-0.3,0.1-0.4c0-0.1,0-0.2,0-0.3c0.4-0.2,0.4-0.5,0.3-0.8c0.1,0.1,0.2,0.2,0.3,0.3c0,0,0.1-0.1,0.1-0.1
		c-0.2-0.2-0.3-0.4-0.5-0.6c0,0,0.1-0.1,0.1-0.1c0.2,0.2,0.3,0.5,0.6,0.7c0.1,0.1,0.3,0.1,0.4,0.2c0-0.1,0.1-0.3,0.1-0.4
		c0.1-0.3,0.1-0.6,0.2-1c0.2,0.1,0.3,0.1,0.4,0.2c0-0.2,0-0.4,0-0.5c0.3,0.4,0.7,0.7,1,1c0.6-0.5,0.7-0.7,0.5-1.2
		c0.3-0.4,0.6-0.8,0.9-1.2c-0.3,0.1-0.6,0.1-0.9,0.2c0.3-0.5,0.6-0.9,0.4-1.5c0.2,0,0.3-0.1,0.4,0c0.5,0.2,0.6-0.2,0.6-0.5
		c0-0.2-0.3-0.5-0.2-0.7c0.1-0.4-0.3-0.3-0.5-0.4c-0.3-0.1-0.7-0.2-0.7-0.6c0-0.1-0.2-0.2-0.3-0.3c-0.3-0.2-0.6-0.4-0.9-0.7
		c-0.1-0.1,0-0.3-0.1-0.5c0.1,0,0.2,0,0.4,0c-0.1,0.2-0.1,0.4-0.1,0.5c0.1,0,0.1,0,0.2,0.1c0.1-0.2,0.2-0.4,0.3-0.7
		c0.2,0.1,0.5-0.2,0.7,0.2c0.5-0.2,0.7,0.3,1.1,0.4c0.2,0.1,0.5,0.1,0.8,0.2c0.2,0.1,0.4,0.2,0.6,0.4c0.4-0.3,0.5-0.5,0.3-1
		c-0.2-0.7-0.4-1-1-1.4c-0.1-0.1-0.3-0.1-0.4-0.2c-0.2-0.2-0.3-0.3-0.5-0.5c-0.1-0.2-0.3-0.4-0.4-0.6c-0.1-0.3-0.2-0.5-0.4-0.9
		c0.2,0,0.3,0,0.4,0.1c0.4,0.3,0.7,0.5,1.2,0.2c0.1-0.1,0.2-0.2,0.4-0.4c0.5,0.3,1,0.6,1.5,0.9c0,0.3,0.1,0.5,0.1,0.9
		c0.7-0.6,0.5,0.2,0.9,0.4c-0.1-0.4-0.1-0.7-0.1-0.9c0,0,0.1,0,0.1,0c0.2,0.5,0.3,1,0.5,1.6c0.4-0.2,0.5-0.4,0.3-0.8
		c-0.2-0.5-0.4-1-0.6-1.5c0.9,0.1,1.6,0.4,2.2,0.9c0.3,0.6,0.5,1.1,0.7,1.6c0.7-0.4,0.8-0.8,0.7-1c0.1-0.2,0.3-0.3,0.4-0.5
		c0-0.1-0.1-0.2-0.1-0.3c0.3,0.3,0.5,0.6,0.8,1.1c0,0.2-0.2,0.6,0.4,0.7c-0.1,0.1-0.1,0.3-0.2,0.4c0.1,0,0.2,0.1,0.2,0.1
		c0,0.4,0.1,0.8,0.1,1.2c0,0,0.1,0,0.1,0c0.1-0.2,0.2-0.3,0.2-0.5c0,0,0.1,0,0.1,0c0,0.2,0,0.3,0,0.5c0.3,0.1,0.7,0.1,0.4,0.6
		c0,0,0,0.1,0.1,0.1c0.1,0,0.2,0,0.2,0c0.1-0.1,0.1-0.2,0.2-0.3c0.1,0.2,0.1,0.3,0.1,0.5c0.3-0.2,0.4-0.5,0.2-0.7
		c-0.3-0.4,0.1-0.8,0-1.2c0,0,0.1,0,0.1,0c0,0.1,0.2,0.2,0.1,0.3c-0.1,0.5,0.2,1,0,1.5c-0.2,0.3-0.1,0.7-0.1,1
		c0,0.2,0.4,0.3,0.6,0.5c0.1-0.1,0.1-0.2,0.2-0.3c0.4-0.4,0.3-1,0.5-1.5c0-0.1-0.1-0.2-0.1-0.3c0-0.2-0.1-0.4-0.1-0.5
		c0.1,0,0.1,0,0.2,0c0,0.2,0,0.3,0.1,0.5c0,0,0.1,0.1,0.1,0.1c0.2-0.2,0.3-0.4,0.6-0.7c0,0.2-0.1,0.4-0.1,0.5c0,0.1,0,0.2,0.1,0.3
		c0.1,0,0.2,0,0.3-0.1c0.2-0.3,0.4-0.7,0.1-1.1c0.2-0.1,0.4-0.2,0.6-0.3c0,0.2,0,0.3,0.1,0.5c0.1-0.1,0.2-0.2,0.3-0.3
		c0.2,0.4,0.4,0.2,0.5,0c0.2-0.3,0.3-0.6,0-1c-0.1-0.1-0.2-0.3-0.3-0.5c-0.6,0.1-1.2-0.5-1-1.2c0.1-0.5,0-0.6-0.5-0.8
		c-0.3-0.1-0.5-0.2-0.7-0.4c0.5,0.3,0.8,0.2,1.2-0.1c-0.1-0.2-0.1-0.4-0.2-0.5c-0.1-0.1-0.3-0.2-0.4-0.1c-0.6,0.1-1-0.1-1.2-0.6
		c-0.1-0.3-0.2-0.6-0.3-0.9c0-0.1,0.1-0.3,0.1-0.4c-0.4-0.4-0.4-1.4,0-1.9c0.1-0.1,0.1-0.3,0-0.4c0-0.1-0.1-0.2-0.1-0.3
		c0.1-0.5,0.1-0.5-0.5-0.5c-0.1-0.6,0.2-1,0.6-1.4c-0.4-0.1-0.8-0.3-1.2-0.4c-0.5-0.1-1,0-1.5,0c0,0.3,0.1,0.7,0.1,1.2
		c-0.2-0.4-0.3-0.6-0.4-0.9c-0.6,0.2-1.2,0.3-1.3,1c0,0-0.1-0.1-0.1-0.1c0-0.2,0.1-0.3,0.1-0.5c-0.3,0.1-0.6,0.2-0.8,0.3
		c0,0,0-0.1-0.1-0.1c0.1-0.1,0.2-0.3,0.4-0.4c-0.1-0.1-0.3-0.1-0.4-0.2c0-0.5-0.2-1-0.8-1.2c0.1,0.2,0.2,0.3,0.3,0.5
		c-0.2,0-0.4-0.2-0.5-0.1c-0.1,0.1-0.2,0.3-0.3,0.4c-0.4-0.2-0.4-0.2-0.9,0.3c-0.4,0-0.5-0.9-1.2-0.4c0.4-0.5,0.1-0.6-0.2-0.9
		c0.2,0,0.4,0.1,0.5,0c0.4-0.3,0.8-0.7,1.2-1.1c0.1-0.1-0.2-0.4-0.3-0.6c-0.2,0.2-0.3,0.3-0.5,0.4c-0.1-0.1-0.2-0.2-0.3-0.3
		c0.4-0.2,0.7-0.2,1-0.4c0.1-0.1,0.1-0.4,0.1-0.6c0.1-0.1,0.3-0.2,0.6-0.4c0.1,0,0.2,0.2,0.4,0.2c0.2,0,0.4-0.1,0.5-0.2
		c0.1-0.1,0.2-0.2,0.1-0.3c-0.1-0.2-0.4-0.3-0.4-0.4c-0.2-0.4-0.3-0.1-0.5-0.1c0,0-0.1,0-0.2,0c0-0.2,0.1-0.3,0.1-0.4
		c-0.4,0.3-0.6,0.2-0.9-0.1c0,0-0.1,0-0.1,0c-0.1,0-0.3,0-0.4-0.1c0.1-0.1,0.2-0.3,0.3-0.5c0,0-0.1-0.2-0.1-0.3
		c-0.3,0-0.5,0.1-0.8,0.1c-0.1,0-0.1,0.1-0.1,0.1c0,0.1,0.1,0.2,0.1,0.2c0.1,0,0.2,0,0.4,0c0,0.1-0.1,0.3-0.1,0.4
		c-0.2-0.1-0.3-0.2-0.5-0.3c-0.1,0.2-0.1,0.3-0.2,0.5c-0.1-0.1-0.2-0.2-0.2-0.2c0.1-0.3,0.2-0.7,0.3-1c0-0.2,0-0.4,0-0.7
		c-0.1-0.3-0.2-0.6-0.3-0.9c0.1-0.1,0.2-0.1,0.3-0.3c-0.2-0.3-0.5-0.5-0.7-0.8c0.1-0.1,0.2-0.2,0.3-0.4c-0.2-0.2-0.7,0-0.6-0.5
		c0,0-0.2-0.1-0.2-0.1c-0.6,0.2-0.5-0.2-0.5-0.6c0-0.1,0.1-0.2,0.1-0.3c-0.1-0.1-0.2-0.2-0.3-0.3c0,0,0.1-0.1,0.1-0.1
		c0.2,0.2,0.4,0.4,0.6,0.6c0,0,0.1-0.1,0.1-0.2c0-0.5,0.5-0.9,0.2-1.4c0,0,0-0.1,0-0.1c0.5-0.4,0.3-0.9,0.4-1.4c0.3,0,0.6,0,0.8,0
		c0-0.3-0.1-0.6-0.1-1c0.1-0.6,0.8-0.7,1.3-1c0,0,0.1,0.1,0.1,0.1c-0.1,0.1-0.3,0.1-0.4,0.2c-0.1,0.1-0.3,0.3-0.3,0.3
		c0.1,0.2,0.3,0.4,0.3,0.4c0.3-0.1,0.4,0.2,0.6,0.3c0.2,0.1,0.4,0.2,0.5,0.1c0.1-0.1,0.3-0.3,0.3-0.5c0-0.1-0.2-0.3-0.3-0.3
		c0.1-0.2,0.2-0.4,0.2-0.6c0-0.1-0.1-0.2-0.2-0.3c0,0,0.1,0,0.1-0.1c0-0.3,0-0.6-0.1-0.8c0-0.1-0.3-0.3-0.4-0.3
		c-0.2,0.1-0.4,0.2-0.4,0.4c-0.2,0.4-0.7,0.3-0.8,0.2c-0.3-0.3-0.6-0.1-0.8,0.1c-0.3,0.4-0.7,0.2-1.1,0.2c-0.1,0-0.2,0-0.3,0
		c-0.3-0.4-1.1-0.7-0.7-1.5c-0.3,0.3-0.4,0.5-0.7,0.7c-0.1-0.2-0.1-0.2-0.1-0.2c0-0.3,0.2-0.8,0.4-1.1c0.1-0.1,0.1-0.5,0-0.6
		c-0.2-0.2-0.5-0.3-0.8-0.5c0.2-0.3,0.5-0.3,0.7-0.2c0.4,0.2,0.6,0.1,0.8-0.2c0.1-0.1,0.2-0.1,0.3-0.2c-0.2-0.4-0.5-0.6-0.9-0.3
		c-0.2,0.1-0.5,0.1-0.7,0c-0.4-0.1-0.9-0.3-1.3-0.4c-0.1-0.3-0.2-0.5-0.3-0.8c0.5,0,0.8-0.2,0.6-0.8c0.3,0,0.5,0.6,0.8,0.1
		c0.1,0.3,0.2,0.6,0.3,0.9c0,0.1,0.1,0.1,0.1,0.2c0.1-0.1,0.1-0.3,0.2-0.5c0.2,0.2,0.5,0.4,0.6,0.6c0.2-0.1,0.5-0.2,0.8-0.3
		c-0.1,0-0.3-0.1-0.4-0.1c0,0,0-0.1,0.1-0.1c0.4,0.1,0.9,0.2,1.4,0.3c-0.1-0.2-0.1-0.3-0.2-0.4c0.3-0.4,0.6-0.7,0.9-1.1
		c-0.5-0.3-0.9-0.6-1.4-1c0.3-0.2,0.4-0.3,0.7-0.4c-0.3-0.2-0.6-0.4-0.8-0.6c-0.3-0.2-0.6-0.4-0.7-0.7c-0.2-0.5-0.4-0.9-1-1
		c-0.1,0-0.1-0.3-0.1-0.5c0-0.2,0.1-0.4,0.1-0.6c0.2-0.1,0.4-0.1,0.7-0.2c0-0.2-0.1-0.3-0.1-0.5c0.3-0.1,0.6-0.1,0.9-0.2
		c0-0.4,0-0.7,0-1c0,0,0.1,0,0.1,0c0,0.1,0.1,0.2,0.1,0.4c0.5-0.1,0.6-0.5,0.6-0.9c0-0.4,0.1-0.4,0.4-0.4c0.4-0.1,0.8-0.3,1.2-0.4
		c0.1,0.3,0.3,0,0.5,0c0.2-0.1,0.4,0,0.7,0.1c0-0.2,0.1-0.4,0.1-0.6c-0.4-0.2-0.9-0.5-1.3-0.7c0.1-0.1,0.3-0.2,0.4-0.3
		c-0.4-0.5-0.8-1-1.2-1.4c-0.2,0-0.4,0-0.6,0c0,0,0,0,0-0.1c0.5-0.2,0.9-0.3,1.4-0.5c0.1,0.3,0.4,0.4,0.7,0.3c0.6-0.2,0.2-0.7,0.3-1
		c0.2-0.1,0.4-0.2,0.6-0.3c0,0.1,0.1,0.1,0.2,0.3c0.1-0.1,0.2-0.2,0.3-0.3c0-0.1,0-0.3-0.1-0.4c-0.5,0.2-0.9,0.4-1.3,0.6
		c-0.1-0.2-0.1-0.4-0.2-0.6c0.8,0.2,0.8,0.2,0.9-0.6c0-0.1,0.2-0.2,0.2-0.3c-0.1-0.1-0.2-0.2-0.2-0.3c0.3-0.3,0.2-0.8-0.2-1.4
		c0.4-0.1,0.5-0.4,0.2-0.7c-0.1-0.1-0.1-0.3-0.1-0.4c-0.1-0.2-0.1-0.4-0.2-0.5c0,0-0.1,0-0.1,0c0.1-0.2,0.2-0.5,0.4-0.8
		c-0.1,0-0.2,0-0.3,0c-0.2,0-0.4,0.1-0.5-0.2c-0.1-0.1-0.3-0.1-0.6-0.2c0.2-0.2,0.3-0.6-0.2-0.9c0.3-0.2,0.4-0.3,0.7-0.4
		c0-0.2,0-0.4,0-0.7c0.3,0,0.5-0.1,0.7-0.1c0.1-0.1,0.3-0.2,0.3-0.3c0-0.1-0.2-0.2-0.3-0.4c0-0.2-0.1-0.4-0.1-0.6
		c-0.4,0.1-0.7,0.2-1.1,0.4c0-0.1,0-0.1,0-0.2c0.1,0,0.2,0,0.4-0.1c0.4-0.4,0.4-0.4,1.1,0c0-0.1,0-0.3,0-0.5c0.4,0,0.8-0.1,1.3-0.1
		c-0.4-0.2-0.7-0.3-1-0.4c0.3-0.5,0.6-1,0.2-1.7c0.4,0.1,0.2,0.7,0.7,0.6c-0.1-0.2-0.6-0.4-0.2-0.7c0.4,0.3,0.7,0.7,1,0.9
		c0.2-0.2,0.3-0.4,0.5-0.6c0-0.2,0-0.4-0.5-0.5c-0.3-0.1-0.6-0.5-0.8-0.6c0.2-0.7,0.4-1.2,0.6-1.7c0.2,0.1,0.5,0.4,0.9,0.6
		c0.1-0.1,0.2-0.2,0.3-0.4c-0.2-0.1-0.4-0.2-0.7-0.3c0.4-0.1,0.7-0.2,1-0.2c0-0.5-0.3-0.9-0.7-1.2c-0.2-0.1-0.2-0.4-0.3-0.7
		c-0.1-0.1-0.1-0.3-0.2-0.4c-0.6-0.4-0.6-0.4-0.2-0.9c-0.1,0-0.2,0.1-0.3,0.1c0-0.1-0.1-0.2-0.1-0.4c-0.1,0.1-0.2,0.2-0.3,0.2
		c-0.1,0.1-0.2,0.1-0.3,0.2c0.3-0.5,0.9-1,0.3-1.7c0.5-0.4,0.2-1.1-0.4-1.1c0.1-0.3,0.3-0.5,0.4-0.8c0.4,0.2,0.8,0.3,1.3,0.5
		c0.1,0,0.2-0.1,0.3-0.2c0.3,0,0.6,0.1,0.8,0.1c0,0,0,0,0,0.1c0.2,0.1,0.5,0.2,0.7,0.3c0.1,0.1,0.2,0.2,0.3,0.3
		c0.1,0.1,0.1,0.4,0.2,0.5c0.1,0.1,0.3,0.2,0.5,0.3c0.1-0.2,0.2-0.3,0.2-0.5c0-0.3,0-0.5,0-0.8c0,0,0.1,0,0.1,0
		c0,0.2,0.1,0.3,0.1,0.5c0,0.5,0.1,0.6,0.6,0.6c0.2,0,0.4,0,0.7,0c-0.1-0.2-0.2-0.3-0.2-0.4c0.4,0,0.6-0.2,0.4-0.6
		c-0.2-0.5-0.5-0.9-0.8-1.5c0.2-0.2,0.6-0.4,0.9-0.6c-0.1-0.1-0.2-0.3-0.4-0.5c0.5-0.2,0.3-0.4,0-0.7c0.3,0.2,0.6,0.3,0.7,0.4
		c-0.1,0.1-0.4,0.3-0.3,0.4c0.1,0.2,0.3,0.4,0.5,0.5c0.2,0.1,0.3,0.1,0.4-0.1c0.1-0.2,0.5-0.4,0.9-0.1c0.1,0.1,0.2,0.1,0.3,0.2
		c0,0,0.1-0.1,0.1-0.1c-0.1-0.1-0.1-0.3-0.2-0.3c0.2-0.4,0.4-0.7,0.6-1.1c0.1,0.3,0.2,0.4,0.3,0.7c0.1-0.2,0.1-0.4,0.1-0.4
		c-0.2-0.1-0.3-0.2-0.5-0.4c0.3-0.3-0.1-0.6-0.3-0.8c-0.2-0.3,0.2-0.8-0.5-0.8c0.2-0.7,0.2-1.4-0.4-1.9c0.2-0.1,0.3-0.3,0.6-0.4
		c0.1,0.1,0.1,0.3,0.2,0.4c0.1,0.1,0.2,0.2,0.3,0.2c0.5,0,0.6,0.5,0.7,0.8c0.1,0.2,0.2,0.5,0.4,0.6c0.2,0.2,0.5,0.4,0.6,0.6
		c0.1,0.1,0,0.3,0.1,0.5c0.1,0,0.3,0,0.4,0c0.1,0,0.2,0,0.3,0.1c0,0,0,0.2,0,0.2c-0.1,0-0.2,0-0.3,0c-0.1,0-0.1,0-0.2,0
		c0.3,0.6,0.6,0.7,0.9,0.3c-0.1-0.1-0.1-0.2-0.2-0.4c0.2,0.1,0.3,0.1,0.3,0.1c0.1,0.2,0.2,0.5,0.6,0.4c0,0,0.1,0.2,0.1,0.2
		c0.4,0,0.7-0.1,1,0c0.3,0,0.6,0.1,0.9,0.2c-0.2-0.4-0.4-0.7-0.6-1c0.4-0.1,0.6,0,0.8,0.3c0,0,0,0.1,0.1,0.1
		c0.2,0.1,0.5,0.1,0.2,0.4c-0.1,0.1-0.2,0.3-0.4,0.5c0.2,0,0.4,0.1,0.6-0.2c0.1-0.1,0.4-0.2,0.5-0.3c0.1-0.2,0.3-0.4,0.3-0.6
		c0-0.2,0-0.5-0.1-0.8c0.2,0.2,0.3,0.4,0.5,0.6c0.1,0.1,0.4,0.2,0.5,0.2c0-0.4-0.1-0.7-0.1-1.1c0.7,0.7,1.3,1.2,1.9,1.9
		c0.1-0.4,0.1-0.7,0.2-0.8c0.2-0.1,0.5-0.1,0.8-0.1c0.2,0.5,0.5,1,0.7,1.6c0.1-0.8,0.2-1.6,0.2-2.3c-0.2-0.1-0.5-0.2-0.8-0.3
		c0.4-0.1,0.6-0.2,0.9-0.2c0.4,0,0.4-0.3,0.4-0.6c0,0,0.1,0,0.1,0c0,0.2,0.1,0.4,0.1,0.6c0,0.1,0,0.3,0.1,0.4c0.4,0.2,0.5,0.6,0.4,1
		c0,0,0.1,0,0.1,0c0.1-0.3,0.2-0.5,0.4-0.8c0.1-0.1,0.2-0.2,0.2-0.2c0.2,0,0.3,0.1,0.5,0.2c0.1,0.1,0.2,0.2,0.4,0.3
		c0,0.5,0,1.1,0.1,1.7c0,0.1,0.2,0.2,0.2,0.2c0.2,0,0.3-0.1,0.5-0.2c0.1-0.1,0.2-0.2,0.3-0.4c0.2,0.4,0.3,0.6,0.5,0.9
		c0.1,0.2-0.2,1-0.4,1.1c-0.3,0.2-0.2,0.3,0,0.6c0.1-0.2,0.2-0.4,0.3-0.6c0,0,0.1,0,0.1,0c0,0.2,0,0.3,0,0.6
		c0.1,0.1,0.2,0.2,0.4,0.3c0-0.3,0-0.4,0-0.7c0.1-0.1,0.3-0.2,0.5-0.3c0,0,0.1,0.1,0.1,0.1c-0.1,0.2-0.2,0.5-0.3,0.7
		c0,0.1-0.1,0.3-0.1,0.4c0,0.1,0.2,0.1,0.3,0.1c0.3,0,0.6-0.2,0.9,0.1c0,0,0.3-0.1,0.4-0.2c0.1-0.2,0.1-0.4,0.2-0.7
		c0.4,0,0.4,0,0.3,0.8c0.3,0.1,0.7,0.2,1,0.3c0,0,0-0.1,0.1-0.1c0,0.2,0,0.4,0.1,0.6c0.2-0.1,0.3-0.1,0.5-0.2
		c-0.1,0.5-0.1,0.9-0.2,1.4c0.3-0.1,0.5-0.1,0.8-0.2c0,0,0,0,0,0.1c-0.2,0.1-0.5,0.3-0.5,0.4c0,0.2,0.2,0.4,0.3,0.6
		c0.2,0.2,0.3,0.4,0.5,0.6c0.2,0.2,0.3,0.3-0.1,0.4c-0.3,0.1-0.6,0.2-1,0.4c-0.2,0.1-0.3,0.1-0.5,0.1c-0.2,0.5,0.2,0.9,0.5,1.4
		c-0.8,0.5-1.1,0.9-0.5,1.9c0.1-0.3,0.1-0.5,0.2-0.7c0.2-0.4,0.4-0.8,0.7-1.2c0,0,0.2,0,0.3,0c0.2,0,0.3,0.1,0.5,0.2
		c0,0.2,0.1,0.4,0.2,0.6c0.3-0.3,0.7-0.7,1-1c0,0,0.1,0,0.1,0.1c-0.1,0.1-0.2,0.2-0.3,0.4c-0.1,0.2-0.2,0.3-0.4,0.5
		c0.6,0.2,1,0.7,1.7,0.3c0,0,0,0.1,0,0.1c-0.2,0.1-0.4,0.3-0.6,0.4c0.2,0.3,0.2,0.3,1.2-0.4c-0.3,0.4-0.2,0.7,0.2,0.9
		c0,0,0,0.2,0,0.4c-0.1,0.4-0.6,0.7-0.2,1.1c-0.2,0.2-0.3,0.3-0.5,0.4c-0.1,0.1-0.2,0-0.3,0.1c-0.2,0.1-0.4,0.2-0.7,0.3
		c0.6,0.3,1.1,0.6,1.7,0.3c0.1-0.1,0.2-0.2,0.3-0.3c0.2-0.2,0.3-0.4,0.5-0.6c-0.2,0.3-0.3,0.6-0.5,0.9c0,0,0.1,0,0.1,0.1
		c-0.2,0.1-0.4,0.2-0.6,0.3c0,0,0,0.1,0,0.1c0.2,0,0.4,0,0.7,0c0,0,0.1,0.1,0.1,0.1c-0.1,0.1-0.2,0.2-0.4,0.3
		c-0.3,0.2-0.6,0.3-0.9,0.4c-0.1,0.1-0.1,0.2-0.2,0.4c0.1,0,0.2-0.1,0.3-0.1c0,0,0.1-0.1,0.1-0.2c0.1,0.1,0.2,0.1,0.3,0.2
		c0.1-0.1,0.1-0.2,0.2-0.4c0.2,0.6,0.6,0,0.9,0.1c-0.1,0.2-0.3,0.4-0.4,0.5c-0.3,0-0.5,0-0.9,0.1c0.4,0.6-0.4,1.3,0.2,1.8
		c-0.3,0.6,0.3,1,0.3,1.5c0.1-0.1,0.2-0.3,0.4-0.5c0.1,0.2,0.1,0.3,0.1,0.5c-0.2,0-0.3,0.1-0.4,0.1c-0.3,0-0.2,0.2-0.2,0.4
		c0,0.4,0.6,0.6,0.2,1.1c0,0,0,0.1,0,0.1c0.5,0.2,0.2,0.8,0.5,1.1c-0.2,0.2-0.8,0.2-0.3,0.7c-0.3,0.1-0.7,0.1-1.1,0.2
		c0.2,0.4,0.3,0.7,0.7,0.8c0.4,0.1,0.7,0,0.9-0.3c0,0,0.1,0.1,0.1,0.1c-0.1,0.2-0.2,0.3-0.4,0.6c0.7,0.3,1.1-0.3,1.6-0.5
		c0.2,0.6,0.5,0,0.8,0c-0.1,0.3-0.2,0.5-0.3,0.7c-0.3,0.4-0.6,0.8-0.9,1.1c-0.3,0.4-0.6,0.9-1.3,0.9c-0.6,0-0.8,0.4-0.6,1.1
		c-0.6,0.1-1.1,0.1-1.7,0.2c-0.1,0-0.2-0.1-0.3-0.2c-0.2-0.2-0.3-0.5-0.4-0.8c-0.3-0.7-1-1-1.7-0.7c-0.1,0-0.1,0.1-0.2,0.2
		c-0.2,0.2-0.4,0.4-0.5,0.5c-0.1-0.2-0.3-0.4-0.4-0.6c0-0.1-0.1-0.1-0.1-0.3c-0.1,0.2-0.2,0.3-0.3,0.5c-0.3-0.4-0.7-0.6-1.2-0.2
		c0.4,0.3,0.8,0.6,1.3,0.9c0,0-0.1,0.1-0.1,0.1c-0.2-0.1-0.4-0.2-0.6-0.3c-0.1,0.1-0.2,0.1-0.3,0.3c-0.1-0.2-0.2-0.4-0.3-0.6
		c-0.1-0.2-0.2-0.4-0.3-0.4c-0.1-0.1-0.3,0.1-0.5,0.1c-0.1,0-0.2-0.1-0.3-0.2c0,0.2-0.2,0.3-0.1,0.5c0.1,0.4,0.2,0.7,0.3,1.1
		c-0.1-0.1-0.2-0.1-0.4-0.2c0.2,0.5,0.3,0.9,0.5,1.2c0.2,0.3,0.3,0.3,0.8-0.1c-0.1,0.2-0.1,0.4-0.2,0.5c0,0.1-0.1,0.2-0.1,0.2
		c0.1,0,0.2,0.1,0.2,0.1c0.2,0,0.5,0,0.8,0c0,0,0,0.1,0.1,0.3c0.1-0.1,0.2-0.2,0.3-0.3c0,0.1,0.1,0.1,0.1,0.2
		c0.1,0.1,0.2,0.2,0.3,0.2c0.3,0,0.6-0.1,0.8-0.1c0,0,0.1-0.1,0.1-0.2c0.2,0.1,0.4,0.1,0.2,0.4c-0.1,0.2,0,0.5-0.2,0.6
		c0.1,0.1,0.1,0.2,0.2,0.3c0.1,0.1,0.2,0.2,0.5,0.3c-0.3,0.1-0.4,0.1-0.7,0.1c0.1,0.1,0.2,0.2,0.3,0.3c0,0.2-0.1,0.3-0.1,0.5
		c-0.2-0.1-0.5-0.1-0.9-0.2c0.2,0.4,0.4,0.6,0.7,0.6c0.1,0,0.3,0.1,0.4,0.2c0.1,0.1,0,0.2,0,0.3c0,0-0.2,0.1-0.2,0
		c-0.3,0-0.6-0.1-1-0.1c0,0.2,0,0.5,0.1,0.6c0.4,0.3,0.2,0.7,0.1,1.1c-0.1,0.2-0.1,0.3,0.1,0.5c0.5,0.5,1,0.6,1.6,0.3
		c0,0,0.1,0,0.2,0c0,0.1,0,0.3,0,0.4c0,0,0.1,0,0.1,0c0.2-0.4,0.4-0.7,0.6-1.1c0,0,0.1,0,0.1,0c-0.1,0.3-0.2,0.5-0.3,0.8
		c0,0,0.1,0.1,0.1,0.1c0.2-0.1,0.4-0.1,0.6-0.2c0.1,0.2,0.2,0.4,0.3,0.6c-0.5-0.2-1.1-0.4-1.4,0.3c0.4,0.4,0.7-0.2,1-0.1
		c-0.1,0.2-0.2,0.4-0.3,0.5c0.1,0.1,0.3,0.1,0.5,0.2c0,0.1-0.1,0.2-0.1,0.4c-0.5,0.1-1,0.2-1.4,0.2c0,0.1,0,0.1,0,0.2
		c0.2,0.1,0.4,0.2,0.6,0.3c-0.1,0.1-0.2,0.3-0.3,0.4c0.9,0.3,1.5,0,1.9-0.7c0,0,0.1,0.1,0.1,0.1c-0.2,0.4-0.4,0.8-0.6,1.1
		c-0.3,0.3-0.6,0.6-1,1c-0.3-0.1-0.6-0.1-0.9,0.3c-0.3,0.3-0.6,0.6-1,0.8c0.3,0.2,0.6,0.5,1,0.1c0.1-0.1,0.5,0,0.8,0.1
		c0.6,0.2,1.1,0.1,1.5-0.3c0.2-0.1,0.2-0.4,0.3-0.7c0.1,0.2,0.2,0.4,0.3,0.6c0,0,0.1,0,0.1,0c0-0.1,0-0.3,0-0.4
		c0.1-0.5,0.2-1.1,0.3-1.5c0.1-0.2,0.4-0.3,0.6-0.5c0.2-0.2,0.4-0.3,0.6-0.4c0.2,0,0.5,0,0.9,0.1c-0.2,0.1-0.3,0.2-0.4,0.3
		c-0.1,0.1-0.2,0.1-0.3,0.2c0.1,0.1,0.2,0.1,0.3,0.2c0.2,0.1,0.4,0.2,0.6,0.3c0.2,0.2,0.5,0.3,0.7,0.5c-0.3,0.2-0.6,0.3-1.1,0.3
		c0.2-0.1,0.3-0.2,0.5-0.2c-0.2-0.4-0.4-0.7-0.9-0.5c-0.3,0.1-0.5,0.3-0.5,0.7c0.3,0,0.6,0.1,0.9,0.1c-0.2,0-0.4,0.1-0.7,0.1
		c-0.5,0-0.6,0.1-0.7,0.5c-0.2,0.2-0.3,0.4-0.5,0.5c-0.4,0.2-0.8,0.4-1.2,0.5c-0.5,0.1-0.6,0.2-0.6,0.7c-0.2-0.3-0.5-0.5-0.9-0.3
		c-0.3,0.2-0.5,0.4-0.7,0.6c0.2,0,0.3,0,0.5,0c0,0.1-0.1,0.3-0.1,0.4c0.2,0,0.3,0,0.5,0.1c-0.2,0.3-0.4,0.5-0.5,0.7
		c0.4,0.2,0.7,0.5,1.1,0.2c0.2-0.1,0.5-0.1,0.7-0.2c0.1-0.1,0.2-0.3,0.2-0.4c0-0.2-0.2-0.4-0.3-0.7c0.2,0.3,0.6,0.5,0.5,0.9
		c0,0,0.1,0.1,0.2,0.2c0.3,0.1,0.5,0.2,0.8,0.3c0.1-0.1,0.4-0.2,0.5-0.4c0.2-0.1,0.3-0.3,0.5-0.4c0.1,0,0.3,0,0.5-0.1
		c0,0.1,0,0.1,0,0.3c0.3-0.1,0.5-0.2,0.8-0.3c0,0.1,0,0.1,0.1,0.2c-0.3,0.1-0.6,0.2-0.9,0.3c-0.2,0.1-0.4,0.2-0.7,0.3
		c-0.3,0.1-0.5,0.3-0.8,0.4c-0.3,0.1-0.5,0.2-0.8,0.3c-0.2,0.1-0.3,0.2-0.5,0.4c0.1,0.1,0.2,0.3,0.3,0.4c0.8,0.6,0.8,2.1,0,2.6
		c-0.3,0.2-0.4,0.7-0.3,0.9c-0.2,0.2-0.4,0.3-0.7,0.5c0.3,0.2,0.4,0.3,0.5,0.4c-0.4,0.6-0.3,1.2-0.2,1.8c0,0.1-0.1,0.2-0.1,0.3
		c0,0.2-0.1,0.3-0.2,0.5c0.1,0,0.1,0.1,0.2,0.1c0.3-0.2,0.6-0.5,0.9-0.7c0.2,0.1,0.4,0.2,0.7,0.4c-0.1,0.2-0.2,0.4-0.3,0.7
		c0.1,0.2,0.3,0.4,0.4,0.6c0.2,0,0.4,0,0.6,0c-0.4,0.4-1.1-0.2-1.2,0.5c0.1,0.1,0.2,0.3,0.3,0.5c0.1,0.1,0.2,0.3,0.4,0.4
		c-0.1,0.1-0.3,0.2-0.5,0.4c-0.1,0,0,0.2-0.1,0.3c-0.1,0-0.4-0.1-0.5,0c-0.2,0.2-0.2,0.5-0.3,0.7c-0.2,0.1-0.3,0.2-0.5,0.3
		c0,0,0,0.1,0,0.1c-0.1,0-0.2-0.1-0.4-0.1c0,0.2,0.1,0.3,0.1,0.5c-0.2-0.1-0.3-0.1-0.4-0.2c0,0,0,0.1,0,0.1c-0.2,0-0.4,0.1-0.6,0.1
		c-0.1,0-0.4,0-0.4,0.1c-0.1,0.1-0.1,0.3,0,0.5c0.1,0.2,0.3,0.3,0.4,0.5c0.2-0.1,0.3-0.2,0.6-0.3c0,0.2,0,0.3-0.1,0.5
		c0.3-0.1,0.5-0.2,0.8-0.3c-0.2,0.6,0,0.7,0.5,0.6c0,0.2,0,0.3,0,0.4c0.3,0.2,0.5,0.3,0.7,0.5c-0.2,0.2-0.3,0.4-0.5,0.6
		c-0.1,0-0.2-0.1-0.4-0.2c0.1,0.2,0.1,0.3,0.1,0.4c-0.8-0.5-1,0.5-1.5,0.5c0,0.1,0,0.1,0,0.2c0.2,0.1,0.5,0.2,0.7,0.4
		c0.2,0.2,0.3,0.4,0.4,0.6c0.2,0,0.4,0.1,0.8,0.1c-0.1,0.2-0.2,0.3-0.3,0.5c0.2,0,0.3,0,0.5,0c0,0,0,0.1,0.1,0.1
		c-0.3,0.2-0.5,0.4-0.8,0.6c0,0,0,0.1,0,0.1c0.3,0,0.7,0,0.9,0c-0.1,0.2-0.2,0.5-0.3,0.8c-0.2,0.2-0.5,0.4-0.8,0.6
		c0,0.1,0,0.1,0.1,0.2c0.3,0,0.5,0,0.8,0c0.3,0,0.5,0.1,0.7,0.1c0,0,0,0.1,0,0.1c-0.2,0.1-0.5,0.2-0.7,0.3c0.4,0.7-0.3,0.6-0.5,0.9
		c-0.1-0.2-0.2-0.3-0.2-0.4c-0.1,0-0.3,0-0.4,0.1c-0.1,0.1-0.3,0.1-0.4,0.3c0,0.1,0.1,0.3,0.2,0.4c0,0.1,0.1,0.2,0.1,0.3
		c0,0.4,0.2,0.7,0.5,0.8c0.4,0.1,0.9,0.2,1.3,0.3c0.1,0,0.4-0.3,0.4-0.5c0-0.2-0.1-0.5-0.2-0.6c-0.2-0.2-0.5-0.4-0.8-0.7
		c0.2,0,0.4,0.1,0.5,0.2c0.2,0.1,0.4,0.2,0.5,0.4c0.2,0.2,0.4,0.4,0.4,0.5c0,0.2-0.2,0.4-0.3,0.6c-0.2,0.3-0.3,0.5-0.3,0.9
		c0,0.2-0.1,0.4-0.3,0.6c-0.2,0.2-0.3,0.4,0,0.7c-0.7-0.2-0.6,0.3-0.6,0.7c0.4-0.1,0.7-0.2,1-0.3c0.1-0.2,0.2-0.4,0.3-0.5
		c0.1,0,0.1,0,0.2,0.1c-0.3,0.7-0.5,1.5-0.1,2.3c-0.1,0-0.1,0-0.2,0c-0.1-0.4-0.2-0.9-0.3-1.4c-0.3,0.1-0.6,0.2-0.8,0.3
		c-0.4,0.2-0.4,0.6-0.2,1.1c0.1,0.3,0.5,0.3,0.9,0.2c0.4,0.2,0.8,0.4,1.2,0.5c0.5,0.1,1,0,1.5,0c0,0,0-0.1,0-0.1
		c0.1,0.1,0.1,0.1,0.3,0.3c0.1-0.2,0.1-0.4,0.1-0.4c0.3-0.2,0.6-0.4,0.9-0.6c0.1,0.1,0.2,0.2,0.5,0.3c0.1-0.3,0.2-0.5,0.3-0.7
		c0.4,0.1,0.8-0.2,1.2-0.9c0.2,0,0.4,0,0.6,0c0.2,0,0.5,0.1,0.6,0.2c0.4,0.4,0.9,0.2,1.2,0.3c0.3,0.2,0.6,0.3,0.9,0.5
		c0.1,0.1,0.2,0.3,0.2,0.5c-0.7-0.4-1.5-0.3-2.2-0.3c-0.1,0-0.2,0.3-0.2,0.5c0,0,0.1,0.1,0.1,0.1c-0.3,0-0.5,0.1-0.8,0.1
		c-0.3,0-0.5,0.4-0.5,0.8c0,0.2,0,0.4,0,0.6c-0.1,0.3,0.1,0.4,0.2,0.5c0.2,0.2,0.3,0.5,0.5,0.7c0.1,0.1,0.3-0.1,0.5-0.1
		c0.1,0,0.2,0,0.4,0c0,0,0,0.1,0,0.1c-0.1,0-0.2,0-0.2,0c-0.2,0.4-0.4,0.7-0.6,1.1c-0.1,0.3-0.1,0.6,0,0.8c0.3,0.5,0.3,0.9,0,1.3
		c-0.1,0.2-0.3,0.5-0.3,0.7c0,0.2,0.3,0.5,0.5,0.6c0.3,0.2,0.7,0.2,1.1,0.4c0.3,0.2,0.6,0.4,0.9,0.6c0.2,0.1,0.5,0.2,0.4,0.6
		c-0.1,0.3-0.2,0.5-0.4,0.7c-0.1,0.1-0.1,0.4,0,0.4c0.3,0.3,0.7,0.5,1.1,0.7c0.1,0.1,0.3,0.1,0.5,0.1c0,0,0.1,0.2,0.2,0.3
		c-0.2,0.1-0.4,0.2-0.5,0.2c-0.2-0.1-0.1-0.7-0.6-0.4c-0.2-0.3-0.3-0.5-0.5-0.8c-0.3,0.5-0.6,0.8-0.3,1.3c0.2,0.3-0.2,0.8,0.4,1
		c-0.5,0.4-0.8,0.8-1.2,1.1c-0.4,0.1-0.8,0.1-1.2,0.2c0.1,0.5-0.3,0.6-0.6,0.6c-0.4,0-0.5,0.2-0.7,0.5c-0.2,0.4-0.6,0.5-1.1,0.4
		c0,0.4,0,0.7,0,1c0,0,0.1,0.1,0.2,0.1c0.3-0.2,0.5,0,0.7,0.1c0,0,0.1,0,0.2,0c0.2-0.1,0.5-0.2,0.7-0.3c0.3-0.2,0.6-0.3,0.6-0.7
		c0,0,0.1-0.1,0.1-0.2c0,0.1,0.1,0.1,0.1,0.1c0,0.7,0,0.7,0.7,0.8c0.1,0,0.3-0.1,0.4-0.2c0,0,0-0.1,0.1-0.2c0.1-0.1,0.3-0.2,0.4-0.3
		c0.1,0.1,0.1,0.2,0.2,0.2c-0.3,0.2-0.5,0.3-0.7,0.5c0,0,0.1,0.1,0.1,0.1c0.1-0.1,0.3-0.2,0.4-0.2c0,0,0.1,0.1,0.1,0.1
		c-0.1,0.1-0.3,0.1-0.4,0.2c-0.2,0.2-0.5,0.5-0.5,0.7c-0.1,0.3,0.2,0.4,0.6,0.4c0.1,0,0.2,0,0.4,0.1c-0.4,0.3-0.7,0.5-1.1,0.8
		c0,0,0,0.1,0.1,0.1c0.2-0.1,0.4-0.1,0.6-0.2c0,0.2,0,0.3,0,0.4c0.1,0,0.2,0,0.3,0c0.2,0.3-0.1,0.9,0.5,0.8c0,0.3,0.1,0.7,0.1,1.1
		c-0.1,0-0.2,0-0.4-0.1c-0.2-0.1-0.3,0-0.5,0.2c-0.2,0.2-0.7,0.2-1,0.3c-0.2,0.1-0.4,0.2-0.5,0.4c0,0,0.1,0.3,0.2,0.5
		c-0.2,0.5-0.6,0.9-1.1,1.3c0.1-0.5-0.1-0.7-0.5-0.8c-0.7-0.2-1.5-0.4-2-1.2c-0.1-0.2-0.2-0.4-0.3-0.6c0.3-0.1,0.6-0.2,0.8-0.4
		c0.1-0.1,0.1-0.5,0.1-0.8c-0.4,0.2-0.6,0.4-0.9,0.5c-0.4,0.1-0.8,0.1-1.2,0c-0.6-0.2-1.2-0.1-1.8,0.1c-0.2,0.1-0.3,0.4-0.4,0.6
		c0-0.1,0-0.2,0-0.3c-0.3,0-0.6-0.1-1-0.1c-0.3,0.2-1.8-0.2-2.5-0.8c0.1,0.5,0.2,0.9,0.3,1.4c-0.2-0.1-0.2-0.2-0.3-0.2
		c-0.1-0.2-0.2-0.4-0.3-0.6c-0.1-0.2-0.1-0.5-0.3-0.7c-0.1-0.1-0.2-0.2-0.3-0.2c-0.1,0.1-0.2,0.2-0.2,0.3
		C281.2,126.8,280.9,127.3,280.4,127.6L280.4,127.6z M282.3,80.9c0,0.3-0.1,0.6,0,0.7c0.8,0.8,2.2,0.7,3-0.1
		c0.2-0.2,0.5-0.5,0.4-0.8c-0.1-0.5-0.3-0.9-0.5-1.3c0-0.1-0.2-0.1-0.2-0.2c-0.2,0-0.4,0-0.6,0c-0.2,0-0.4,0.1-0.5,0.2
		c-0.1,0-0.3,0.1-0.4,0.1c-0.3-0.3-0.5-0.1-0.7,0.1c-0.2,0.2-0.3,0.3-0.4,0.4c-0.5-0.2-1-0.3-1.5-0.5c0,0-0.1,0-0.1,0
		c-0.8,0-1.6,0-2.4,0c-0.3,0-0.5,0-0.4,0.2c-0.2,0.2-0.4,0.3-0.7,0.5c0.6,0.3,1,0.6,1.5,0.8c0.4-0.1,1,0.2,1.3-0.5
		c0,0.5,0.4,0.8,0.7,0.8C281.4,81.2,281.8,81,282.3,80.9z M284.8,102.6c-1.1-0.8-2.5-0.3-3.6-0.8c-0.1,0.2-0.1,0.3-0.1,0.5
		c-0.2,0-0.4-0.1-0.6-0.1c0,0.2,0,0.3,0,0.5c-0.6-0.2-0.7,0.2-0.7,0.6c-0.3,0.2-0.8-0.1-1,0.3c0.1,0.1,0.3,0.2,0.3,0.4
		c0.1,0.8,0.3,1.1,1.1,1.1c0.3,0,0.4,0.1,0.4,0.4c0,0.2,0.2,0.3,0.4,0.4c0.2,0.2,0.5,0.3,0.8,0.5c0.3,0.2,0.5,0.2,0.7-0.1
		c0.2-0.3,0.3-0.5,0.5-0.8c0.3-0.3,0.3-1.1,0.1-1.4c-0.2-0.2-0.3-0.5-0.5-0.8c0.4,0,0.7,0,1,0C283.8,102.7,284.2,102.3,284.8,102.6z
		 M267.3,118.7c-0.1-0.1-0.3-0.5-0.5-0.5c-0.2,0-0.4,0.2-0.6,0.3c-0.2,0.2-0.4,0.5-0.7,0.7c-0.7,0.5-1.1,1.1-1.2,1.9
		c-0.1,0.3,0,0.4-0.4,0.4c-0.1,0-0.3,0.3-0.4,0.4c0,0.1,0.1,0.3,0.2,0.3c0.7,0.3,1.3,0.5,2,0.7c0.3,0.1,0.4-0.1,0.5-0.3
		c0-0.1,0.1-0.4,0.2-0.4c0.5-0.2,0.4-0.6,0.4-1c0-0.5-0.1-1,0.2-1.5C267.1,119.5,267.2,119.2,267.3,118.7z M282,85.7
		c0.2,0.1,0.4,0.2,0.6,0.2c0.2,0,0.5-0.2,0.6-0.4c0.1-0.2,0.2-0.6,0.1-0.7c-0.5-0.7-1.1-0.9-1.7-0.2c-0.2-0.2-0.4-0.3-0.5-0.4
		c-0.3,1.1-0.3,1.1-0.2,1.4c0.2-0.3,0.4-0.5,0.7-0.9C281.7,85.1,281.9,85.4,282,85.7z M292.5,127.2c-0.1,0.2-0.2,0.3-0.2,0.4
		c0,0.1,0.1,0.3,0.2,0.3c0.1,0,0.3,0,0.4-0.1c0.2-0.2-0.1-0.8-0.3-0.9c-0.1-0.1-0.3-0.1-0.4-0.2c-0.3,0.2-0.6,0.3-0.9,0.5
		c0,0,0-0.1-0.1-0.1c0.2-0.2,0.4-0.4,0.6-0.6c-0.2-0.1-0.5-0.3-0.7-0.3c-0.2,0-0.4,0.3-0.5,0.5c0.3,0.5,0.3,0.5,1.1,0.8
		C291.8,127.7,292.1,127.4,292.5,127.2z M245.4,104.9c-0.1,0.2-0.2,0.2-0.2,0.3c-0.3,0.5-0.3,0.6,0.3,0.7c0.7,0.3,1.5,0.1,2.2-0.1
		c-0.7-0.2-1.4-0.4-2.2-0.6C245.5,105.2,245.5,105.1,245.4,104.9z M285.9,61c0.5,0,0.5-0.4,0.6-0.6c0,0-0.2-0.2-0.2-0.3
		c-0.3,0-0.7-0.1-0.8,0.4c-0.1-0.2-0.2-0.4-0.3-0.5c-0.1-0.1-0.2-0.2-0.4-0.3c0,0.1-0.1,0.3-0.1,0.4c0.1,0.8,0.4,0.9,1,0.5
		c0,0,0,0,0.1,0C285.8,60.8,285.8,60.9,285.9,61z M246,106.5c0,0.1,0,0.1,0,0.2c0.4,0.2,0.9,0.4,1.3,0.5c0.1,0,0.4-0.3,0.5-0.5
		c0-0.1-0.1-0.4-0.2-0.4C247.1,106.4,246.6,106.4,246,106.5z M284.4,105.2c-0.3,0.2-0.4,0.4-0.6,0.4c-0.3,0.1-0.4,0.3-0.3,0.6
		c0.1,0.1,0.3,0.3,0.4,0.3c0.2,0,0.3-0.2,0.5-0.4c0.1,0,0.2,0,0.3-0.1C284.6,105.7,284.5,105.5,284.4,105.2z M275.8,124.3
		c0,0.3,0.1,0.6,0.1,0.9c0,0,0.1,0,0.1,0c0.1-0.1,0.1-0.2,0.2-0.4c0.1,0.1,0.2,0.3,0.3,0.4c-0.1,0.2-0.1,0.3-0.2,0.4
		c0.2,0,0.3,0,0.4,0c-0.3-0.7,0.4-0.4,0.6-0.6C277.1,124.5,276.4,124.7,275.8,124.3z M254.7,103.1c-0.2,0.4-0.3,0.8-0.5,1.1
		c0.2,0.2,0.3,0.4,0.5,0.5c0.1,0.1,0.3,0.2,0.4,0.2c0,0,0-0.1,0.1-0.1c-0.1-0.1-0.1-0.2-0.2-0.4c0.2,0,0.3,0,0.4,0c0,0,0-0.1,0-0.1
		c-0.3-0.1-0.5-0.2-0.8-0.2c0,0,0-0.1,0-0.1c0.2-0.1,0.4-0.1,0.6-0.2C255,103.5,254.8,103.3,254.7,103.1z M285,126.3
		c-0.5-0.2-0.9-0.4-1.3-0.5c-0.1,0-0.2,0-0.2,0.1c-0.1,0.2,0.4,0.9,0.6,0.9C284.4,126.7,284.8,126.8,285,126.3z M279.3,43.9
		c1-0.1,1.1-0.2,1-0.7c-0.1,0-0.3,0.1-0.5,0.1c0.1-0.3,0.2-0.5,0.2-0.7c0,0-0.1,0-0.1-0.1C279.7,43,279.1,43.2,279.3,43.9z
		 M289.7,127.7c0.1,0.6,0.4,1,1,1.1c0-0.3,0-0.6-0.1-0.9c0-0.1-0.2-0.2-0.3-0.2C290.1,127.6,289.9,127.7,289.7,127.7z M244.6,112
		c-0.2,0.2-0.9,0.1-0.6,0.7c0.2,0.3,0.5,0.5,0.8,0.2C245.3,112.5,244.6,112.3,244.6,112z M285.3,104.1c0.1,0,0.1,0,0.1,0
		c0-0.2,0.1-0.4,0.1-0.6c0.1,0,0.2,0,0.3,0c0-0.2,0-0.3-0.1-0.4c0.1,0,0.2,0,0.4-0.1c-0.1-0.2-0.2-0.3-0.3-0.5
		c-0.2,0.1-0.4,0.1-0.5,0.1c-0.1,0.4-0.1,0.7-0.2,1.1C285.2,103.9,285.2,104,285.3,104.1z M277,123.4c-0.4,0.2-0.6,0.1-0.8-0.2
		c0-0.1-0.1-0.2-0.2-0.3c-0.1-0.1-0.1-0.1-0.2-0.2c0,0.1-0.2,0.2-0.1,0.3c0.2,0.4,0.4,0.7,0.6,1c0,0,0.1,0,0.2,0c0.1,0,0.3,0,0.5,0
		C277,123.9,277,123.7,277,123.4z M254.2,38.4c0,0-0.1-0.1-0.2-0.1c-0.1,0-0.2,0.1-0.3,0.2c0,0,0,0.2,0.1,0.2
		c0.3,0.1,0.6,0.2,0.8,0.3c0,0,0.1,0,0.1-0.1c-0.1-0.1-0.1-0.2-0.1-0.3c0.2-0.3,0.4-0.5,0.6-0.7c0,0-0.1-0.1-0.1-0.1
		C254.8,38,254.5,38.2,254.2,38.4z M275.1,33.4c0.3,0.2,0.5,0.3,0.7,0.4c0.1,0,0.2,0.1,0.2,0c0.1,0,0.1-0.2,0.1-0.2
		c-0.1-0.4-0.3-0.8-0.4-1.2c-0.1,0-0.1,0-0.2,0.1c0,0.2,0.1,0.4,0.2,0.6C275.6,33.1,275.4,33.3,275.1,33.4z M280.9,44.1
		c0.1,0.1,0.2,0.2,0.3,0.3c-0.3,0.1-0.6,0.1-0.8,0.2c-0.1,0.5,0.3,0.3,0.5,0.2c0.1,0.1,0.2,0.3,0.3,0.3c0.1,0,0.3,0,0.3,0
		C281.6,44.9,281.3,44.2,280.9,44.1z M247.5,76.7c0.3,0.2,0.6,0.3,0.8,0.4c0.2-0.3,0.5-0.5,0.7-0.7c0,0-0.1-0.1-0.1-0.1
		c-0.2,0.1-0.4,0.2-0.7,0.3C248,76.4,247.7,76.2,247.5,76.7z M282.6,41c-0.3-0.4-0.6-0.5-1-0.3c-0.2,0.1-0.5,0.2-0.7,0.3
		c-0.1,0-0.1,0.1-0.2,0.2c0.1,0,0.2,0.1,0.3,0c0.4-0.2,0.7-0.4,1.1-0.1C282.2,41.2,282.4,41.1,282.6,41z M286.6,72.6
		c0.1,0,0.2,0,0.2,0c0.1,0,0.2,0,0.4-0.1c0,0,0-0.2,0-0.2c-0.1,0-0.4-0.1-0.4-0.1c-0.2,0.3-0.5,0.6-0.6,0.9c0,0.1,0.3,0.3,0.4,0.6
		C286.6,73.3,286.6,73,286.6,72.6z M282.9,45.7c0.3,0.2,0.6,0.4,0.9,0.6c0.1-0.2,0.2-0.5,0.2-0.7c0-0.1-0.2-0.2-0.4-0.4
		c0,0.3,0,0.4,0,0.6C283.4,45.9,283.3,45.1,282.9,45.7z M278.8,62.4c-0.1-0.3-0.2-0.6-0.3-0.8c0-0.1-0.2-0.1-0.3-0.1
		c-0.1,0-0.2,0.1-0.2,0.2c0,0.2,0,0.3,0,0.6C278.1,62.3,278.4,62.4,278.8,62.4z M263.4,119.7c0.5,0.3,0.9,0.1,1.3-0.1
		c0.1,0,0.1-0.3,0.2-0.5c-0.5,0.1-0.8,0.7-1.4,0.3C263.5,119.5,263.4,119.6,263.4,119.7z M248.9,72.7c0,0,0,0.1,0,0.1
		c0.3,0.1,0.5,0.4,0.8,0.2c0-0.3,0-0.6,0.1-0.9C249.4,72.4,249.1,72.6,248.9,72.7z M290.9,128.8c0.4-0.2,0.8-0.4,1.1-0.6
		c0-0.1,0-0.1-0.1-0.2c-0.3,0.1-0.6,0.1-0.9,0.2c0,0-0.1-0.2-0.1-0.3c-0.1,0.2,0,0.3,0,0.4C291,128.4,290.9,128.6,290.9,128.8z
		 M251.8,103.2c0.1-0.2,0.2-0.4,0.3-0.6c-0.2,0-0.3,0-0.5,0c0.1-0.1,0.1-0.2,0.2-0.4c-0.1,0-0.1-0.1-0.2-0.1
		c-0.1,0.2-0.2,0.3-0.2,0.5c0.1,0.8,0.2,0.8,0.8,0.8c0,0,0-0.1,0-0.1C252,103.2,251.9,103.2,251.8,103.2z M263.5,79.7
		c0,0,0,0.1,0.1,0.1c0.6-0.1,1.2-0.3,2-0.4c-0.2-0.1-0.3-0.2-0.5-0.1C264.5,79.3,263.9,79.3,263.5,79.7z M253.6,55.4
		c0,0.2-0.1,0.4-0.1,0.6c0,0.3,0.2,0.4,0.4,0.3c0.2-0.1,0.4-0.4,0.6-0.6C254.1,55.6,253.9,55.5,253.6,55.4z M282.4,72.2
		c0.1-0.1,0.3-0.2,0.4-0.3c0.1-0.1,0.3-0.1,0.3-0.2c0-0.1-0.1-0.3-0.1-0.3c-0.2,0-0.4,0.1-0.5,0.1c-0.1,0-0.2,0-0.3,0.1
		c0,0,0,0.2,0,0.2C282.2,72,282.3,72.1,282.4,72.2z M269.8,83.6c0.7,0,1.3,0,1.9,0c0-0.1,0-0.1,0-0.2c-0.1-0.1-0.3-0.2-0.4-0.2
		c-0.1,0.1-0.1,0.2-0.2,0.3C270.7,83.5,270.2,82.9,269.8,83.6z M265.6,79.9c0.7,0,1.1,0.6,1.7,0.2c-0.5-0.2-0.9-0.4-1.4-0.5
		C265.8,79.6,265.8,79.7,265.6,79.9z M287.2,59c0,0-0.1,0-0.1,0.1c-0.1,0.1-0.2,0.2-0.3,0.3c0.1,0,0.3,0,0.4,0
		c0.1,0,0.2-0.1,0.2-0.1c0-0.2,0-0.4,0-0.6c0,0-0.2-0.1-0.3-0.1C287.2,58.7,287.2,58.8,287.2,59z M277.1,34.7c0,0.5-0.1,0.9-0.1,1.4
		c0.2-0.2,0.4-0.3,0.5-0.5c0.1-0.2,0-0.4,0-0.7C277.5,34.9,277.3,34.8,277.1,34.7z M292.2,129.3c0-0.2,0-0.4-0.1-0.7
		c-0.4,0.2-0.7,0.3-0.9,0.4c0,0,0,0.1,0,0.1C291.5,129.1,291.8,129.2,292.2,129.3z M275.9,121.4c-0.2,0.3-0.2,0.5,0.1,0.7
		c0.2,0.1,0.5,0.4,0.7,0c-0.1-0.1-0.3-0.2-0.4-0.3C276.1,121.7,276,121.6,275.9,121.4z M277.7,125c0.2,0.3,0.9,0.6,1.4,0.4
		C278.6,125.2,278.3,124.8,277.7,125z M250.8,60.3c0.1,0.4,0.5,0.6,0.7,0.4c0.1,0,0.2-0.2,0.1-0.3C251.4,60,251.1,60.2,250.8,60.3z
		 M281.6,37.9c-0.2,0-0.4,0-0.6-0.1c0,0.3,0,0.6,0.1,0.8C281.6,38.6,281.6,38.3,281.6,37.9z M284.3,48.5c0,0,0.2,0,0.3,0.1
		c0.1,0,0.2,0.1,0.4,0.1c-0.2-0.8-0.2-1-0.4-1C284.5,48,284.4,48.2,284.3,48.5z M242.7,114.7c-0.4,0.4-0.4,0.6,0,1.1
		C243.2,115.5,242.8,115.1,242.7,114.7z M289.8,107.9c-0.1,0.2-0.2,0.3-0.3,0.5c0,0,0.1,0.1,0.1,0.1c0.1-0.1,0.1-0.2,0.2-0.3
		c0.1,0.1,0.2,0.2,0.4,0.3c-0.1-0.5-0.1-0.9-0.2-1.3c-0.1,0-0.1,0-0.2,0C289.9,107.5,289.9,107.7,289.8,107.9z M292,107.2
		c0,0-0.1-0.1-0.1-0.1c-0.1,0.2-0.3,0.4-0.3,0.6c0,0.2,0.2,0.4,0.2,0.7c0,0,0.1,0,0.1-0.1C291.9,108,292,107.6,292,107.2z M262.1,35
		c0.2-0.2,0.4-0.4,0.6-0.5c0.2,0,0.5,0.1,0.9,0.2c-0.2-0.3-0.3-0.4-0.3-0.5c-0.3,0-0.4,0-0.6,0.1C262.3,34.4,262,34.5,262.1,35z
		 M253.9,38c0,0,0.1,0,0.1,0c-0.1-0.3,0.3-0.6-0.1-0.8c-0.2-0.1-0.4,0-0.7,0.1c0.2,0.2,0.3,0.2,0.4,0.3
		C253.8,37.6,253.9,37.8,253.9,38z M251.7,104.5c0.2,0,0.3-0.1,0.5-0.1c-0.1-0.2-0.1-0.3-0.3-0.5c-0.1-0.1-0.3-0.2-0.4-0.3
		C251.6,104,251.6,104.2,251.7,104.5z M284.4,104.8c0.1,0.2,0.3,0.3,0.4,0.4c0.5-0.3,0.3-0.6,0.2-1
		C284.7,104.4,284.6,104.6,284.4,104.8z M283.9,72.5c-0.6-0.1-1.2,0.2-1.1,0.7C283.1,73,283.5,72.7,283.9,72.5z M273.2,35.4
		C273.3,35.4,273.3,35.4,273.2,35.4c0.3,0,0.4-0.1,0.7-0.2c0-0.1,0.1-0.4,0.1-0.6c-0.1,0-0.1-0.1-0.2-0.1
		C273.7,34.8,273.4,35.1,273.2,35.4z M248.8,81.6c0.2-0.1,0.3-0.1,0.5-0.2c0.2-0.2,0.3-0.5,0.5-0.7c0,0,0-0.1-0.1-0.2
		c-0.2,0.2-0.4,0.3-0.5,0.4C249,81.1,249,81.3,248.8,81.6z M283.8,97.6c-0.3,0.1-0.5,0.1-0.7,0.1c-0.1,0-0.1,0.2-0.2,0.3
		c0,0,0.1,0.1,0.2,0.2C283.4,98.2,283.7,97.9,283.8,97.6z M279.2,126.3c0,0.1,0,0.2,0,0.2c0.3,0,0.5,0,0.8,0.1
		c0.1-0.1,0.1-0.3,0.2-0.5C279.8,126.2,279.5,126.3,279.2,126.3z M245.2,72.5c0,0,0,0.2,0,0.2c0.3,0.1,0.6,0.2,0.9,0.3
		c0,0,0.1-0.2,0.1-0.2C245.8,72.6,245.6,72.5,245.2,72.5z M288,58.1C288,58.1,288,58.1,288,58.1c0.3,0.2,0.5,0.3,0.9,0.5
		c0-0.1,0-0.3,0-0.5C288.6,58,288.3,58,288,58.1z M270.7,105c-0.1-0.1-0.2-0.1-0.2-0.2c-0.2,0.2-0.3,0.3-0.5,0.5
		c0.1,0.1,0.3,0.2,0.3,0.2C270.5,105.3,270.6,105.2,270.7,105z M280.9,67.8c0.1-0.2,0.2-0.3,0.3-0.5c-0.3-0.2-0.6-0.2-0.8,0.1
		C280.6,67.6,280.7,67.7,280.9,67.8z M282.8,91.3c0,0,0.1-0.1,0.1-0.1c-0.1-0.1-0.2-0.3-0.3-0.4c-0.2-0.1-0.6,0.3-0.6,0.6
		c0.2-0.1,0.4-0.2,0.5-0.3C282.7,91.1,282.8,91.2,282.8,91.3z M266.8,84.3c0.2,0.4,0.5,0.6,0.9,0.4c0-0.1,0-0.1,0-0.2
		C267.4,84.4,267.1,84.3,266.8,84.3z M249.9,85.7c-0.2,0.2-0.3,0.3-0.4,0.4c0,0.1,0,0.3,0.1,0.3c0.1,0,0.3,0,0.5,0
		c-0.1-0.1-0.1-0.2-0.2-0.3C249.9,86.1,249.9,86,249.9,85.7z M252.4,85.7c0,0,0.1,0,0.1,0.1c0.2-0.2,0.4-0.4,0.6-0.6
		c0,0-0.1-0.1-0.1-0.1c-0.1,0-0.2,0.1-0.3,0.1c-0.1-0.1-0.1-0.2-0.2-0.3c-0.1,0-0.1,0-0.2,0.1c0.1,0.2,0.1,0.3,0.2,0.4
		C252.6,85.5,252.5,85.6,252.4,85.7z M255.2,39.4c-0.4,0.2-0.5,0.5-0.2,0.9c0.1-0.1,0.3-0.1,0.3-0.1
		C255.3,39.8,255.2,39.6,255.2,39.4z M288.7,126.5c0.4,0.3,0.8,0.2,1.1-0.3C289.4,126.3,289.1,126.3,288.7,126.5z M294.6,118.1
		c0.1,0,0.1,0.1,0.2,0.1c0.1-0.4,0.3-0.8,0.4-1.2c-0.1,0-0.1,0-0.2-0.1C294.9,117.3,294.8,117.7,294.6,118.1z M245.2,113.1
		c0,0-0.1,0.1-0.1,0.1c0.2,0.2,0.4,0.5,0.7,0.8c0.1-0.2,0.1-0.3,0.1-0.4C245.7,113.4,245.4,113.2,245.2,113.1z M285,47.6
		c0.1,0.4,0.2,0.6,0.3,1c0.1-0.3,0.2-0.4,0.4-0.7C285.5,47.8,285.3,47.8,285,47.6z M281.5,100.7c0,0,0.1,0,0.1-0.1
		c0-0.2,0-0.5,0-0.7c-0.2,0.1-0.3,0.2-0.5,0.3C281.3,100.4,281.4,100.5,281.5,100.7z M239.4,129c0-0.4,0-0.6-0.1-0.8
		c0,0-0.1,0-0.1,0c0,0.3-0.1,0.6-0.1,0.9c0,0,0,0,0.1,0.1C239.3,129.1,239.4,129,239.4,129z M251.5,62.9c-0.1,0-0.2-0.1-0.2-0.1
		c0,0.1-0.1,0.3-0.1,0.3c0.1,0.1,0.2,0.2,0.3,0.4c0.1-0.1,0.2-0.2,0.2-0.3C251.7,63.1,251.5,63,251.5,62.9z M249.2,63.9
		c0.3,0.2,0.5,0.1,0.8-0.3C249.8,63.5,249.8,63.5,249.2,63.9z M255,38.7c0,0,0,0.1,0,0.1c0.3-0.1,0.5-0.2,0.8-0.3
		C255.6,38.1,255.5,38.1,255,38.7z M281.3,39.8c0.2,0.1,0.5,0.2,0.7,0.3c0.1,0,0.1,0,0.2,0c0,0,0-0.1,0-0.2
		C282.1,39.7,281.5,39.7,281.3,39.8z M277.8,126.3c0.3,0.5,0.5,0.5,0.8,0.2C278.3,126.4,278,126.3,277.8,126.3z M259.6,84.1
		c0.3,0,0.5,0,0.8,0C260,83.6,260,83.6,259.6,84.1z M250.4,86c0,0,0.1,0,0.1,0c0-0.3-0.1-0.5-0.2-0.8c0-0.1-0.2-0.1-0.3-0.1
		c0,0.1-0.1,0.2,0,0.2C250.1,85.5,250.2,85.8,250.4,86z M292.3,120.1c0,0-0.1,0.1-0.1,0.1c0.1,0.1,0.3,0.3,0.4,0.4c0,0,0.1,0,0.1,0
		c0-0.1,0.1-0.4,0-0.4C292.7,120.1,292.5,120.1,292.3,120.1z M293.8,116.9c-0.2,0.3-0.5,0.5-0.7,0.7
		C293.5,117.5,293.9,117.2,293.8,116.9z M261.6,83.2c0,0.1,0,0.1-0.1,0.2c0.2,0.4,0.5,0.3,0.8,0.3c0,0,0-0.1,0.1-0.1
		C262.1,83.4,261.8,83.3,261.6,83.2z M280.7,100.9c0.1,0,0.2,0,0.3,0c0-0.2,0.1-0.3,0.1-0.5c-0.1,0-0.3-0.1-0.4-0.1
		C280.7,100.6,280.7,100.8,280.7,100.9z M287.9,59.1c0.1,0,0.1,0.1,0.2,0.1c0.1-0.2,0.3-0.3,0.4-0.5c-0.1,0-0.2-0.1-0.3-0.1
		C288.1,58.8,288,58.9,287.9,59.1z M291.7,108.9c-0.2-0.3-0.3-0.5-0.4-0.8C291,108.6,291.1,108.7,291.7,108.9z M284.3,47.2
		c0,0,0.1,0.1,0.1,0.1c0.1-0.2,0.2-0.4,0.3-0.6c-0.1-0.1-0.2-0.1-0.3-0.2C284.4,46.8,284.3,47,284.3,47.2z M283.5,73.2
		c0.1,0.1,0.1,0.1,0.2,0.2c0.2-0.2,0.4-0.4,0.5-0.6c0,0,0,0-0.1,0C284,72.9,283.7,73,283.5,73.2z M252,85.6c0.1,0,0.1,0,0.2,0
		c0-0.1,0.1-0.3,0-0.4c-0.1-0.1-0.3-0.1-0.4-0.1c0,0,0,0.1-0.1,0.1C251.8,85.3,251.9,85.4,252,85.6z M263.7,102.3
		c-0.2,0.2-0.4,0.3-0.6,0.4c0.3,0.1,0.4,0.1,0.6,0.2C263.8,102.7,263.8,102.6,263.7,102.3z M280.7,42.7c-0.1,0-0.1,0-0.2,0.1
		c0.1,0.3,0.2,0.5,0.3,0.8c0.1,0,0.1,0,0.2-0.1C280.9,43.2,280.8,43,280.7,42.7z M280.2,38.9c-0.1,0.2-0.1,0.4-0.2,0.6
		C280.3,39.4,280.8,39.4,280.2,38.9z"/>
	<path class="st0" d="M284.9,76.3c0.1,0.2,0.2,0.4,0.3,0.7c0,0.1-0.1,0.3-0.2,0.4c-0.2,0.1-0.5,0.1-0.7,0.2
		c-0.4,0.2-0.7-0.1-1.1-0.2c0.2-0.2,0.3-0.4,0.5-0.7c-0.2,0-0.3,0-0.5-0.1c0-0.1,0.1-0.2,0.1-0.4c-0.2,0-0.3,0-0.5,0
		c0.3-0.2,0.5-0.5,0.7-0.6c0.4-0.2,0.6,0,0.9,0.3C284.6,75.9,284.8,76.1,284.9,76.3z"/>
	<path class="st1" d="M289,132.2c-0.3-0.2-0.6-0.4-0.9-0.6c-0.1-0.1-0.2-0.4-0.1-0.5c0.1-0.4-0.1-0.6-0.4-1
		c-0.1,0.3-0.1,0.4-0.2,0.7c-0.3-0.3,0-0.9-0.6-0.8c0-0.3,0-0.5,0-0.8c0.6,0.2,1.1,0.6,1.2,1.1c0.2,0.7,0.4,1.4,1.1,1.8
		C289.1,132.1,289,132.2,289,132.2z"/>
	<path class="st1" d="M260.3,121.7c-0.3-0.5-1.1-0.6-1.1-1.4c0-0.1-0.4-0.3-0.6-0.5c0.2-0.1,0.4-0.3,0.6-0.3c0.2,0,0.3,0.4,0.4,0.6
		c0.1,0.2,0.2,0.3,0.3,0.5c0,0,0.1,0.1,0.1,0.1C260.1,121.1,260.2,121.4,260.3,121.7z"/>
	<path class="st1" d="M248.5,69.8c-0.2,0.6-0.5,1.1-0.7,1.6c-0.1,0-0.2,0-0.2,0c-0.1-0.4-0.5-0.8-0.4-1.1
		C247.4,69.7,248,69.8,248.5,69.8z M247.7,71.1c0.1,0,0.1,0,0.2,0c0.1-0.2,0.2-0.5,0.3-0.7c0.1-0.2,0-0.4-0.3-0.3
		c-0.2,0.1-0.4,0.2-0.4,0.3C247.4,70.6,247.6,70.9,247.7,71.1z"/>
	<path class="st1" d="M294,130.4c0.4-0.9,0.7-1.7,1-2.4c0,0,0.1,0,0.1,0c0,0.2,0.1,0.5,0,0.7c-0.1,0.4-0.3,0.7-0.5,1.1
		C294.4,129.9,294.2,130.1,294,130.4z"/>
	<path class="st1" d="M290.7,55.9c0,0.6,0,1.1,0,1.6c-0.2-0.1-0.3-0.2-0.5-0.2C290.3,56.8,290.5,56.4,290.7,55.9z"/>
	<path class="st1" d="M271.5,123.8c0.5-1.3,0.5-1.3,0.8-1.4C272.1,122.9,271.8,123.4,271.5,123.8z"/>
	<path class="st1" d="M286.5,85.3c0.1-0.1,0.2-0.3,0.3-0.4c-0.1-0.2-0.1-0.4-0.2-0.6c0,0,0.1,0,0.1-0.1c0.1,0.2,0.4,0.4,0.4,0.7
		c0,0.2-0.3,0.4-0.4,0.6C286.6,85.4,286.5,85.3,286.5,85.3z"/>
	<path class="st1" d="M254.6,122.6c-0.3,0.3-0.6,0.5-0.8,0.7C253.8,122.8,254.2,122.5,254.6,122.6z"/>
	<path class="st1" d="M236.3,130.5c0,0.2,0,0.4,0,0.6c-0.2,0-0.3,0-0.5,0c0.1-0.2,0.3-0.5,0.4-0.7
		C236.2,130.4,236.2,130.4,236.3,130.5z"/>
	<path class="st1" d="M280.4,127.6c-0.1,0.4-0.7,0.9-1.2,0.9C279.7,128.2,280,127.9,280.4,127.6
		C280.4,127.6,280.4,127.6,280.4,127.6z"/>
	<path class="st1" d="M249.3,61.6c0.1-0.2,0.2-0.4,0.2-0.7c0.2,0,0.4,0.1,0.6,0.1C249.9,61.3,249.6,61.5,249.3,61.6
		C249.4,61.6,249.3,61.6,249.3,61.6z"/>
	<path class="st1" d="M247.6,99c-0.2,0.2-0.4,0.5-0.6,0.7c-0.1-0.1-0.1-0.1-0.2-0.2c0-0.4,0.5-0.4,0.7-0.7
		C247.5,99,247.6,99,247.6,99z"/>
	<path class="st0" d="M282.3,80.9c-0.5,0.1-1,0.3-1.4,0.4c-0.3,0.1-0.6-0.3-0.7-0.8c-0.3,0.7-0.9,0.4-1.3,0.5
		c-0.5-0.3-0.9-0.5-1.5-0.8c0.2-0.2,0.4-0.3,0.7-0.5c-0.1-0.3,0.1-0.2,0.4-0.2c0.8,0,1.6,0,2.4,0c0,0,0.1,0,0.1,0
		c0.5,0.2,1,0.3,1.5,0.5c0.1-0.1,0.3-0.3,0.4-0.4c0.2-0.2,0.4-0.3,0.7-0.1c0,0,0.2,0,0.4-0.1c0.2-0.1,0.4-0.2,0.5-0.2
		c0.2,0,0.4,0,0.6,0c0.1,0,0.2,0.1,0.2,0.2c0.2,0.4,0.4,0.9,0.5,1.3c0,0.2-0.2,0.6-0.4,0.8c-0.8,0.8-2.2,0.9-3,0.1
		C282.3,81.5,282.3,81.2,282.3,80.9z"/>
	<path class="st0" d="M284.8,102.6c-0.7-0.3-1,0.1-1.3,0.5c-0.3,0-0.6,0-1,0c0.2,0.3,0.4,0.5,0.5,0.8c0.2,0.3,0.2,1.1-0.1,1.4
		c-0.2,0.2-0.4,0.5-0.5,0.8c-0.2,0.3-0.5,0.3-0.7,0.1c-0.2-0.2-0.5-0.3-0.8-0.5c-0.1-0.1-0.3-0.2-0.4-0.4c-0.1-0.2-0.2-0.3-0.4-0.4
		c-0.8,0-1-0.3-1.1-1.1c0-0.1-0.2-0.2-0.3-0.4c0.2-0.4,0.7-0.2,1-0.3c0-0.4,0-0.8,0.7-0.6c0-0.2,0-0.3,0-0.5c0.2,0,0.4,0.1,0.6,0.1
		c0-0.1,0.1-0.3,0.1-0.5C282.4,102.3,283.7,101.8,284.8,102.6z"/>
	<path class="st0" d="M267.3,118.7c-0.1,0.4-0.2,0.8-0.3,1.1c-0.3,0.5-0.2,1-0.2,1.5c0,0.4,0.1,0.8-0.4,1c-0.1,0-0.1,0.3-0.2,0.4
		c-0.1,0.2-0.2,0.4-0.5,0.3c-0.7-0.2-1.3-0.5-2-0.7c-0.1,0-0.3-0.3-0.2-0.3c0.1-0.2,0.3-0.5,0.4-0.4c0.4,0,0.4-0.1,0.4-0.4
		c0.2-0.8,0.5-1.5,1.2-1.9c0.3-0.2,0.4-0.5,0.7-0.7c0.2-0.2,0.5-0.4,0.6-0.3C267,118.3,267.2,118.6,267.3,118.7z"/>
	<path class="st0" d="M282,85.7c-0.1-0.3-0.3-0.6-0.4-1.1c-0.3,0.3-0.5,0.6-0.7,0.9c-0.1-0.2-0.1-0.2,0.2-1.4
		c0.2,0.1,0.3,0.2,0.5,0.4c0.6-0.6,1.2-0.4,1.7,0.2c0.1,0.2,0,0.5-0.1,0.7c-0.1,0.2-0.4,0.4-0.6,0.4C282.4,85.9,282.2,85.8,282,85.7
		z"/>
	<path class="st0" d="M292.5,127.2c-0.4,0.2-0.7,0.4-0.9,0.4c-0.8-0.3-0.8-0.3-1.1-0.8c0.2-0.2,0.3-0.4,0.5-0.5
		c0.2,0,0.5,0.2,0.7,0.3c-0.2,0.2-0.4,0.4-0.6,0.6c0,0,0,0.1,0.1,0.1c0.3-0.2,0.6-0.4,0.9-0.5c0.2,0.1,0.3,0.2,0.4,0.2
		c0.2,0.1,0.5,0.7,0.3,0.9c-0.1,0.1-0.3,0.1-0.4,0.1c-0.1-0.1-0.2-0.2-0.2-0.3C292.3,127.5,292.4,127.4,292.5,127.2z"/>
	<path class="st0" d="M245.4,104.9c0,0.2,0.1,0.3,0.1,0.3c0.8,0.2,1.5,0.4,2.2,0.6c-0.8,0.2-1.5,0.4-2.2,0.1
		c-0.5-0.2-0.6-0.3-0.3-0.7C245.3,105.1,245.3,105.1,245.4,104.9z"/>
	<path class="st0" d="M285.9,61c0-0.2,0-0.3-0.1-0.4c-0.1,0-0.1,0-0.1,0c-0.6,0.4-1,0.3-1-0.5c0-0.1,0.1-0.3,0.1-0.4
		c0.1,0.1,0.3,0.2,0.4,0.3c0.1,0.2,0.1,0.3,0.3,0.5c0.1-0.5,0.5-0.5,0.8-0.4c0.1,0,0.3,0.2,0.2,0.3C286.4,60.7,286.3,61.1,285.9,61z
		"/>
	<path class="st0" d="M246,106.5c0.5,0,1.1-0.1,1.6-0.1c0.1,0,0.2,0.3,0.2,0.4c-0.1,0.2-0.4,0.5-0.5,0.5c-0.5-0.1-0.9-0.3-1.3-0.5
		C246,106.6,246,106.6,246,106.5z"/>
	<path class="st0" d="M284.4,105.2c0.1,0.3,0.2,0.6,0.3,0.8c-0.1,0-0.3,0.1-0.3,0.1c-0.2,0.1-0.3,0.3-0.5,0.4
		c-0.1,0-0.3-0.2-0.4-0.3c-0.1-0.3,0-0.4,0.3-0.6C284,105.5,284.2,105.4,284.4,105.2z"/>
	<path class="st0" d="M275.8,124.3c0.6,0.3,1.2,0.1,1.6,0.8c-0.2,0.2-0.9-0.2-0.6,0.6c-0.1,0-0.2,0-0.4,0c0.1-0.1,0.1-0.3,0.2-0.4
		c-0.1-0.1-0.2-0.2-0.3-0.4c-0.1,0.2-0.2,0.3-0.2,0.4c0,0-0.1,0-0.1,0C275.9,125,275.9,124.7,275.8,124.3z"/>
	<path class="st0" d="M254.7,103.1c0.2,0.2,0.3,0.4,0.5,0.7c-0.2,0.1-0.4,0.1-0.6,0.2c0,0,0,0.1,0,0.1c0.3,0.1,0.5,0.2,0.8,0.2
		c0,0,0,0.1,0,0.1c-0.1,0-0.2,0-0.4,0c0.1,0.2,0.1,0.3,0.2,0.4c0,0,0,0.1-0.1,0.1c-0.1-0.1-0.3-0.1-0.4-0.2
		c-0.2-0.1-0.3-0.3-0.5-0.5C254.3,103.9,254.5,103.5,254.7,103.1z"/>
	<path class="st0" d="M285,126.3c-0.2,0.4-0.6,0.4-0.9,0.4c-0.2,0-0.7-0.7-0.6-0.9c0-0.1,0.2-0.1,0.2-0.1
		C284.1,126,284.5,126.1,285,126.3z"/>
	<path class="st0" d="M288.1,73.5c-0.3,0-0.6-0.1-0.9-0.1c0-0.3,0.1-0.6,0.5-0.7c0.5-0.1,0.7,0.1,0.9,0.5
		C288.4,73.4,288.2,73.5,288.1,73.5C288.1,73.5,288.1,73.5,288.1,73.5z"/>
	<path class="st0" d="M279.3,43.9c-0.3-0.7,0.4-0.9,0.6-1.3c0,0,0.1,0,0.1,0.1c-0.1,0.2-0.1,0.4-0.2,0.7c0.2-0.1,0.4-0.1,0.5-0.1
		C280.4,43.7,280.3,43.8,279.3,43.9z"/>
	<path class="st0" d="M289.7,127.7c0.2,0,0.4-0.1,0.6-0.1c0.1,0,0.3,0.1,0.3,0.2c0.1,0.3,0.1,0.6,0.1,0.9
		C290.1,128.7,289.8,128.3,289.7,127.7z"/>
	<path class="st0" d="M244.6,112c0,0.4,0.7,0.6,0.2,1c-0.3,0.2-0.6,0.1-0.8-0.2C243.7,112.1,244.4,112.2,244.6,112z"/>
	<path class="st0" d="M285.3,104.1c0-0.1-0.1-0.3-0.1-0.4c0-0.3,0.1-0.6,0.2-1.1c0.1,0,0.3-0.1,0.5-0.1c0.1,0.1,0.2,0.3,0.3,0.5
		c-0.2,0-0.2,0.1-0.4,0.1c0,0.1,0,0.2,0.1,0.4c-0.1,0-0.2,0-0.3,0c0,0.2-0.1,0.4-0.1,0.6C285.4,104.1,285.3,104.1,285.3,104.1z"/>
	<path class="st0" d="M277,123.4c0,0.2,0.1,0.4,0.1,0.6c-0.2,0-0.4,0-0.5,0c-0.1,0-0.2,0-0.2,0c-0.2-0.3-0.4-0.7-0.6-1
		c0-0.1,0.1-0.2,0.1-0.3c0.1,0.1,0.2,0.1,0.2,0.2c0.1,0.1,0.1,0.2,0.2,0.3C276.3,123.6,276.5,123.7,277,123.4z"/>
	<path class="st0" d="M254.2,38.4c0.3-0.2,0.6-0.4,0.9-0.5c0,0,0.1,0.1,0.1,0.1c-0.2,0.2-0.4,0.4-0.6,0.7c0,0.1,0.1,0.2,0.1,0.3
		c0,0-0.1,0.1-0.1,0.1c-0.3-0.1-0.6-0.2-0.8-0.3c-0.1,0-0.1-0.2-0.1-0.2c0.1-0.1,0.2-0.2,0.3-0.2C254.1,38.3,254.2,38.4,254.2,38.4z
		"/>
	<path class="st0" d="M275.1,33.4c0.2-0.1,0.4-0.3,0.6-0.4c-0.1-0.3-0.1-0.5-0.2-0.6c0.1,0,0.1,0,0.2-0.1c0.1,0.4,0.3,0.8,0.4,1.2
		c0,0.1,0,0.2-0.1,0.2c-0.1,0-0.2,0-0.2,0C275.7,33.7,275.5,33.6,275.1,33.4z"/>
	<path class="st0" d="M280.9,44.1c0.3,0.1,0.7,0.8,0.5,1c0,0.1-0.2,0.1-0.3,0c-0.1-0.1-0.2-0.2-0.3-0.3c-0.2,0-0.6,0.3-0.5-0.2
		c0.3,0,0.5-0.1,0.8-0.2C281.1,44.3,281,44.2,280.9,44.1z"/>
	<path class="st0" d="M247.5,76.7c0.3-0.6,0.5-0.3,0.7-0.1c0.2-0.1,0.4-0.2,0.7-0.3c0,0,0.1,0.1,0.1,0.1c-0.2,0.2-0.4,0.5-0.7,0.7
		C248.1,77,247.8,76.9,247.5,76.7z"/>
	<path class="st0" d="M282.6,41c-0.2,0-0.3,0.1-0.4,0.1c-0.4-0.3-0.8-0.1-1.1,0.1c-0.1,0-0.2,0-0.3,0c0.1-0.1,0.1-0.2,0.2-0.2
		c0.2-0.1,0.5-0.2,0.7-0.3C282,40.5,282.3,40.6,282.6,41z"/>
	<path class="st0" d="M286.6,72.6c0,0.4,0,0.7,0,1.1c-0.2-0.2-0.5-0.5-0.4-0.6c0.1-0.3,0.4-0.6,0.6-0.9c0-0.1,0.3,0,0.4,0.1
		c0,0,0,0.2,0,0.2c-0.1,0-0.2,0.1-0.4,0.1C286.7,72.6,286.7,72.6,286.6,72.6z"/>
	<path class="st0" d="M282.9,45.7c0.4-0.6,0.5,0.2,0.8,0.1c0-0.1,0-0.3,0-0.6c0.2,0.2,0.4,0.3,0.4,0.4c0,0.3-0.2,0.5-0.2,0.7
		C283.5,46.1,283.2,45.9,282.9,45.7z"/>
	<path class="st0" d="M278.8,62.4c-0.4-0.1-0.6-0.1-0.8-0.1c0-0.2,0-0.4,0-0.6c0-0.1,0.1-0.2,0.2-0.2c0.1,0,0.2,0,0.3,0.1
		C278.6,61.9,278.7,62.1,278.8,62.4z"/>
	<path class="st0" d="M263.4,119.7c0.1-0.1,0.1-0.2,0.2-0.3c0.5,0.4,0.8-0.2,1.4-0.3c-0.1,0.2-0.1,0.4-0.2,0.5
		C264.3,119.8,263.9,120,263.4,119.7z"/>
	<path class="st0" d="M248.9,72.7c0.3-0.2,0.6-0.4,0.9-0.6c0,0.4,0,0.6-0.1,0.9c-0.3,0.2-0.5-0.1-0.8-0.2
		C248.9,72.8,248.9,72.8,248.9,72.7z"/>
	<path class="st0" d="M290.9,128.8c0-0.2,0-0.4,0-0.5c0-0.1,0-0.3,0-0.4c0.1,0.1,0.1,0.2,0.1,0.3c0.3-0.1,0.6-0.1,0.9-0.2
		c0,0.1,0,0.1,0.1,0.2C291.7,128.4,291.4,128.6,290.9,128.8z"/>
	<path class="st0" d="M251.8,103.2c0.2,0,0.3,0,0.4,0c0,0.1,0,0.1,0,0.1c-0.5,0.1-0.7,0-0.8-0.8c0-0.1,0.1-0.3,0.2-0.5
		c0.1,0,0.1,0.1,0.2,0.1c-0.1,0.1-0.1,0.2-0.2,0.4c0.2,0,0.3,0,0.5,0C251.9,102.8,251.9,102.9,251.8,103.2z"/>
	<path class="st0" d="M263.5,79.7c0.5-0.3,1-0.4,1.6-0.4c0.1,0,0.2,0.1,0.5,0.1c-0.8,0.2-1.4,0.3-2,0.4
		C263.5,79.7,263.5,79.7,263.5,79.7z"/>
	<path class="st0" d="M253.6,55.4c0.3,0.1,0.6,0.2,0.8,0.3c-0.2,0.2-0.4,0.5-0.6,0.6c-0.2,0.1-0.4,0-0.4-0.3
		C253.5,55.8,253.5,55.6,253.6,55.4z"/>
	<path class="st0" d="M282.4,72.2c-0.1-0.2-0.1-0.3-0.2-0.4c0-0.1-0.1-0.2,0-0.2c0.1-0.1,0.2-0.1,0.3-0.1c0.1,0,0.3,0,0.5-0.1
		c0,0,0.1,0.2,0.1,0.3c0,0.1-0.2,0.1-0.3,0.2C282.6,72,282.5,72.1,282.4,72.2z"/>
	<path class="st0" d="M269.8,83.6c0.4-0.6,0.9-0.1,1.3-0.1c0-0.1,0.1-0.2,0.2-0.3c0.1,0.1,0.3,0.2,0.4,0.2c0,0.1,0,0.1,0,0.2
		C271.1,83.6,270.5,83.6,269.8,83.6z"/>
	<path class="st0" d="M265.6,79.9c0.2-0.2,0.2-0.3,0.3-0.4c0.5,0.2,1,0.4,1.4,0.5C266.7,80.5,266.3,79.9,265.6,79.9z"/>
	<path class="st0" d="M287.2,59c0-0.2,0-0.3,0-0.4c0.1,0,0.3,0,0.3,0.1c0,0.2,0,0.4,0,0.6c0,0-0.2,0.1-0.2,0.1c-0.1,0-0.3,0-0.4,0
		c0.1-0.1,0.2-0.2,0.3-0.3C287.1,59,287.2,59,287.2,59z"/>
	<path class="st0" d="M277.1,34.7c0.2,0.1,0.3,0.2,0.3,0.2c0,0.3,0.1,0.5,0,0.7c-0.1,0.2-0.3,0.3-0.5,0.5
		C277.1,35.6,277.1,35.2,277.1,34.7z"/>
	<path class="st0" d="M292.2,129.3c-0.4-0.1-0.7-0.1-1-0.2c0,0,0-0.1,0-0.1c0.3-0.1,0.6-0.3,0.9-0.4
		C292.2,128.8,292.2,129.1,292.2,129.3z"/>
	<path class="st0" d="M275.9,121.4c0.1,0.1,0.2,0.3,0.4,0.4c0.1,0.1,0.3,0.2,0.4,0.3c-0.2,0.4-0.5,0.2-0.7,0
		C275.7,121.9,275.6,121.7,275.9,121.4z"/>
	<path class="st0" d="M277.7,125c0.6-0.2,0.9,0.2,1.4,0.4C278.6,125.6,277.9,125.3,277.7,125z"/>
	<path class="st0" d="M250.8,60.3c0.3-0.1,0.6-0.3,0.8,0.1c0,0.1,0,0.3-0.1,0.3C251.3,60.9,250.9,60.7,250.8,60.3z"/>
	<path class="st0" d="M281.6,37.9c0,0.4,0,0.7-0.6,0.8c0-0.3,0-0.5-0.1-0.8C281.2,37.8,281.4,37.9,281.6,37.9z"/>
	<path class="st0" d="M284.3,48.5c0.1-0.3,0.2-0.5,0.3-0.8c0.2,0,0.2,0.2,0.4,1c-0.2-0.1-0.3-0.1-0.4-0.1
		C284.4,48.6,284.3,48.5,284.3,48.5z"/>
	<path class="st0" d="M242.7,114.7c0.1,0.4,0.5,0.7,0,1.1C242.3,115.3,242.3,115.1,242.7,114.7z"/>
	<path class="st0" d="M289.8,107.9c0-0.2,0-0.4,0-0.6c0.1,0,0.1,0,0.2,0c0.1,0.4,0.1,0.7,0.2,1.3c-0.2-0.2-0.3-0.2-0.4-0.3
		c-0.1,0.1-0.1,0.2-0.2,0.3c0,0-0.1-0.1-0.1-0.1C289.7,108.3,289.8,108.1,289.8,107.9z"/>
	<path class="st0" d="M292,107.2c0,0.4-0.1,0.8-0.1,1.2c0,0-0.1,0-0.1,0.1c-0.1-0.2-0.3-0.4-0.2-0.7c0-0.2,0.2-0.4,0.3-0.6
		C291.9,107.2,291.9,107.2,292,107.2z"/>
	<path class="st0" d="M262.1,35c-0.1-0.5,0.2-0.6,0.5-0.7c0.1,0,0.3-0.1,0.6-0.1c0,0.1,0.1,0.2,0.3,0.5c-0.4-0.1-0.6-0.2-0.9-0.2
		C262.5,34.6,262.3,34.8,262.1,35z"/>
	<path class="st0" d="M253.9,38c-0.1-0.2-0.1-0.3-0.2-0.5c-0.1-0.1-0.3-0.1-0.4-0.3c0.2,0,0.5-0.1,0.7-0.1c0.4,0.2,0,0.5,0.1,0.8
		C254,37.9,254,38,253.9,38z"/>
	<path class="st0" d="M251.7,104.5c-0.1-0.3-0.1-0.5-0.2-0.9c0.2,0.1,0.4,0.2,0.4,0.3c0.1,0.1,0.2,0.3,0.3,0.5
		C252,104.4,251.9,104.5,251.7,104.5z"/>
	<path class="st0" d="M284.4,104.8c0.2-0.2,0.4-0.4,0.5-0.6c0.1,0.4,0.4,0.7-0.2,1C284.6,105.1,284.5,105,284.4,104.8z"/>
	<path class="st0" d="M283.9,72.5c-0.4,0.2-0.7,0.4-1.1,0.7C282.7,72.7,283.2,72.4,283.9,72.5z"/>
	<path class="st0" d="M273.2,35.4c0.2-0.3,0.4-0.6,0.6-0.9c0.1,0,0.1,0.1,0.2,0.1c-0.1,0.2-0.1,0.5-0.1,0.6
		C273.7,35.3,273.5,35.4,273.2,35.4C273.3,35.4,273.3,35.4,273.2,35.4z"/>
	<path class="st0" d="M248.8,81.6c0.1-0.3,0.2-0.6,0.3-0.8c0.1-0.2,0.3-0.3,0.5-0.4c0,0.1,0.1,0.2,0.1,0.2c-0.1,0.2-0.3,0.5-0.5,0.7
		C249.2,81.5,249,81.6,248.8,81.6z"/>
	<path class="st0" d="M283.8,97.6c-0.1,0.3-0.4,0.6-0.7,0.6c-0.1,0-0.2-0.1-0.2-0.2c0-0.1,0.1-0.2,0.2-0.3
		C283.3,97.7,283.5,97.7,283.8,97.6z"/>
	<path class="st0" d="M279.2,126.3c0.3,0,0.6-0.1,1-0.1c-0.1,0.2-0.1,0.3-0.2,0.5c-0.3,0-0.6,0-0.8-0.1
		C279.2,126.5,279.2,126.4,279.2,126.3z"/>
	<path class="st0" d="M245.2,72.5c0.3,0.1,0.6,0.1,1,0.2c0,0-0.1,0.2-0.1,0.2c-0.3-0.1-0.6-0.1-0.9-0.3
		C245.2,72.7,245.2,72.5,245.2,72.5z"/>
	<path class="st0" d="M288,58.1c0.3,0,0.6,0,0.9-0.1c0,0.2,0,0.4,0,0.5C288.5,58.4,288.3,58.3,288,58.1C288,58.1,288,58.1,288,58.1z
		"/>
	<path class="st0" d="M270.7,105c-0.1,0.2-0.2,0.4-0.3,0.5c0,0-0.2-0.1-0.3-0.2c0.2-0.2,0.3-0.3,0.5-0.5
		C270.5,104.9,270.6,104.9,270.7,105z"/>
	<path class="st0" d="M280.9,67.8c-0.2-0.2-0.3-0.3-0.5-0.4c0.2-0.3,0.5-0.3,0.8-0.1C281.1,67.5,281,67.7,280.9,67.8z"/>
	<path class="st0" d="M282.8,91.3c-0.1-0.1-0.2-0.1-0.3-0.2c-0.2,0.1-0.3,0.2-0.5,0.3c0-0.3,0.4-0.7,0.6-0.6
		c0.1,0.1,0.2,0.2,0.3,0.4C282.9,91.2,282.9,91.2,282.8,91.3z"/>
	<path class="st0" d="M266.8,84.3c0.3,0.1,0.7,0.1,1,0.2c0,0.1,0,0.1,0,0.2C267.3,84.8,267,84.6,266.8,84.3z"/>
	<path class="st0" d="M249.9,85.7c0,0.2,0,0.3,0.1,0.5c0,0.1,0.1,0.2,0.2,0.3c-0.2,0-0.3,0-0.5,0c-0.1,0-0.1-0.2-0.1-0.3
		C249.6,86,249.7,85.9,249.9,85.7z"/>
	<path class="st0" d="M252.4,85.7c0.1-0.1,0.1-0.3,0.2-0.4c0-0.1-0.1-0.3-0.2-0.4c0.1,0,0.1,0,0.2-0.1c0.1,0.1,0.1,0.2,0.2,0.3
		c0.1,0,0.2-0.1,0.3-0.1c0,0,0.1,0.1,0.1,0.1c-0.2,0.2-0.4,0.4-0.6,0.6C252.5,85.7,252.5,85.7,252.4,85.7z"/>
	<path class="st0" d="M255.2,39.4c0,0.3,0.1,0.5,0.1,0.7c-0.1,0-0.2,0.1-0.3,0.1C254.7,39.8,254.8,39.6,255.2,39.4z"/>
	<path class="st0" d="M288.7,126.5c0.4-0.1,0.7-0.2,1.1-0.3C289.4,126.7,289.1,126.8,288.7,126.5z"/>
	<path class="st0" d="M294.6,118.1c0.1-0.4,0.3-0.8,0.4-1.2c0.1,0,0.1,0,0.2,0.1c-0.1,0.4-0.3,0.8-0.4,1.2
		C294.8,118.1,294.7,118.1,294.6,118.1z"/>
	<path class="st0" d="M245.2,113.1c0.2,0.2,0.5,0.3,0.8,0.5c0,0.1-0.1,0.2-0.1,0.4c-0.3-0.3-0.5-0.5-0.7-0.8
		C245.1,113.1,245.2,113.1,245.2,113.1z"/>
	<path class="st0" d="M285,47.6c0.3,0.1,0.4,0.2,0.7,0.3c-0.1,0.2-0.2,0.4-0.4,0.7C285.2,48.2,285.1,48,285,47.6z"/>
	<path class="st0" d="M281.5,100.7c-0.1-0.2-0.2-0.3-0.3-0.5c0.2-0.1,0.3-0.2,0.5-0.3c0,0.3,0,0.5,0,0.7
		C281.6,100.7,281.6,100.7,281.5,100.7z"/>
	<path class="st0" d="M239.4,129c0,0-0.1,0.1-0.2,0.1c0,0-0.1,0-0.1-0.1c0-0.3,0-0.6,0.1-0.9c0,0,0.1,0,0.1,0
		C239.4,128.5,239.4,128.7,239.4,129z"/>
	<path class="st0" d="M251.5,62.9c0.1,0.1,0.2,0.2,0.2,0.3c0,0.1-0.1,0.2-0.2,0.3c-0.1-0.1-0.2-0.2-0.3-0.4c0-0.1,0-0.2,0.1-0.3
		C251.3,62.8,251.4,62.8,251.5,62.9z"/>
	<path class="st0" d="M249.2,63.9c0.6-0.4,0.6-0.4,0.8-0.3C249.7,64,249.5,64.1,249.2,63.9z"/>
	<path class="st0" d="M255,38.7c0.5-0.5,0.6-0.6,0.8-0.2c-0.3,0.1-0.5,0.2-0.8,0.3C255,38.8,255,38.7,255,38.7z"/>
	<path class="st0" d="M281.3,39.8c0.2-0.2,0.8-0.1,0.9,0c0,0,0,0.1,0,0.2c0,0-0.1,0.1-0.2,0C281.8,40,281.5,39.9,281.3,39.8z"/>
	<path class="st0" d="M277.8,126.3c0.3,0.1,0.5,0.1,0.8,0.2C278.3,126.8,278,126.7,277.8,126.3z"/>
	<path class="st0" d="M259.6,84.1c0.4-0.5,0.4-0.5,0.8,0C260.1,84.1,259.9,84.1,259.6,84.1z"/>
	<path class="st0" d="M250.4,86c-0.1-0.2-0.2-0.5-0.3-0.7c0-0.1,0-0.2,0-0.2c0.1,0,0.2,0.1,0.3,0.1c0.1,0.3,0.1,0.5,0.2,0.8
		C250.4,86,250.4,86,250.4,86z"/>
	<path class="st0" d="M292.3,120.1c0.2,0,0.4,0,0.5,0.1c0.1,0.1,0,0.3,0,0.4c0,0-0.1,0-0.1,0c-0.1-0.1-0.3-0.3-0.4-0.4
		C292.2,120.1,292.3,120.1,292.3,120.1z"/>
	<path class="st0" d="M293.8,116.9c0.1,0.3-0.3,0.6-0.7,0.7C293.3,117.4,293.6,117.2,293.8,116.9z"/>
	<path class="st0" d="M261.6,83.2c0.3,0.1,0.5,0.2,0.8,0.3c0,0,0,0.1-0.1,0.1c-0.3,0-0.6,0.1-0.8-0.3
		C261.5,83.3,261.5,83.3,261.6,83.2z"/>
	<path class="st0" d="M280.7,100.9c0-0.2,0-0.3,0-0.5c0.1,0,0.3,0.1,0.4,0.1c0,0.2-0.1,0.3-0.1,0.5
		C280.8,101,280.8,100.9,280.7,100.9z"/>
	<path class="st0" d="M287.9,59.1c0.1-0.2,0.2-0.3,0.3-0.5c0,0,0.2,0.1,0.3,0.1c-0.1,0.2-0.3,0.3-0.4,0.5
		C288,59.2,287.9,59.1,287.9,59.1z"/>
	<path class="st0" d="M291.7,108.9c-0.6-0.2-0.6-0.2-0.4-0.8C291.4,108.3,291.5,108.6,291.7,108.9z"/>
	<path class="st0" d="M284.3,47.2c0-0.2,0-0.4,0.1-0.6c0.1,0.1,0.2,0.1,0.3,0.2c-0.1,0.2-0.2,0.4-0.3,0.6
		C284.4,47.2,284.3,47.2,284.3,47.2z"/>
	<path class="st0" d="M283.5,73.2c0.2-0.2,0.4-0.3,0.7-0.5c0,0,0,0,0.1,0c-0.2,0.2-0.4,0.4-0.5,0.6
		C283.6,73.3,283.6,73.2,283.5,73.2z"/>
	<path class="st0" d="M252,85.6c-0.1-0.1-0.2-0.3-0.3-0.4c0,0,0-0.1,0.1-0.1c0.1,0,0.3,0,0.4,0.1c0.1,0.1,0,0.3,0,0.4
		C252.1,85.6,252,85.6,252,85.6z"/>
	<path class="st0" d="M263.7,102.3c0,0.3,0,0.4,0.1,0.6c-0.2,0-0.3-0.1-0.6-0.2C263.4,102.6,263.5,102.5,263.7,102.3z"/>
	<path class="st0" d="M280.7,42.7c0.1,0.3,0.2,0.5,0.3,0.8c-0.1,0-0.1,0-0.2,0.1c-0.1-0.3-0.2-0.5-0.3-0.8
		C280.5,42.7,280.6,42.7,280.7,42.7z"/>
	<path class="st0" d="M280.2,38.9c0.5,0.4,0.1,0.5-0.2,0.6C280.1,39.4,280.2,39.2,280.2,38.9z"/>
	<path class="st0" d="M247.7,71.1c-0.1-0.2-0.2-0.5-0.2-0.7c0-0.1,0.2-0.2,0.4-0.3c0.2-0.1,0.4,0,0.3,0.3c-0.1,0.2-0.2,0.5-0.3,0.7
		C247.8,71.1,247.7,71.1,247.7,71.1z"/>
</g>
</svg>
